<svg xmlns="http://www.w3.org/2000/svg" xmlns:xlink="http://www.w3.org/1999/xlink" width="250" zoomAndPan="magnify" viewBox="0 0 187.5 41.25" height="55" preserveAspectRatio="xMidYMid meet" version="1.0"><defs><g/><clipPath id="db7f2a62db"><path d="M 24.625 1.351562 L 106.605469 1.351562 L 106.605469 38 L 24.625 38 Z M 24.625 1.351562 " clip-rule="nonzero"/></clipPath><clipPath id="e574e7abee"><path d="M 9.183594 10.121094 L 33.554688 10.121094 L 33.554688 34.492188 L 9.183594 34.492188 Z M 9.183594 10.121094 " clip-rule="nonzero"/></clipPath></defs><g clip-path="url(#db7f2a62db)"><path fill="#521197" d="M 104.027344 22.507812 C 104.027344 22.507812 104.847656 21.671875 105.730469 20.699219 C 106.605469 19.671875 106.28125 19.441406 106.054688 18.847656 C 105.824219 18.25 105.597656 18.535156 105.261719 18.507812 C 104.925781 18.480469 105.019531 18.644531 105.113281 18.699219 C 105.207031 18.753906 105.0625 18.804688 105.046875 18.953125 C 105.035156 19.101562 105.007812 19.144531 105.15625 19.375 C 105.300781 19.601562 105.273438 19.628906 105.207031 19.699219 C 105.140625 19.765625 104.886719 20.144531 104.820312 20.347656 C 104.75 20.550781 104.523438 20.765625 104.308594 20.847656 C 104.09375 20.929688 104.160156 20.875 104.09375 20.578125 C 104.027344 20.277344 104.011719 19.832031 103.851562 19.238281 C 103.691406 18.644531 103.15625 18.699219 102.605469 18.226562 C 102.925781 17.902344 102.550781 17.46875 102.550781 17.46875 C 102.550781 17.46875 102.886719 16.886719 102.992188 16.765625 C 103.101562 16.644531 103.207031 16.644531 103.316406 16.507812 C 103.421875 16.375 103.179688 16.441406 103.34375 16.007812 C 103.503906 15.574219 103.542969 15.480469 103.503906 15.050781 C 103.464844 14.617188 102.941406 14.304688 102.644531 14.171875 C 102.347656 14.035156 102.148438 14.117188 101.933594 14.171875 C 101.71875 14.226562 101.625 14.292969 101.53125 14.414062 C 101.4375 14.535156 100.925781 14.765625 101.074219 15.007812 C 101.222656 15.25 101.167969 15.304688 101.167969 15.453125 C 101.167969 15.601562 101.046875 15.644531 101.007812 15.941406 C 100.964844 16.238281 101.207031 16.414062 101.207031 16.414062 L 101.128906 16.929688 C 101.128906 16.929688 101.074219 16.953125 100.898438 17.238281 C 100.433594 17.183594 100.070312 17.257812 99.804688 17.4375 C 99.492188 17.144531 99.238281 17.121094 99.238281 17.121094 C 99.238281 17.121094 99.039062 17.09375 98.933594 16.933594 C 98.828125 16.769531 99.011719 16.730469 99.011719 16.421875 C 99.011719 16.113281 98.917969 15.738281 98.878906 15.6875 C 98.839844 15.632812 98.972656 14.976562 98.828125 13.730469 C 98.679688 12.488281 97.535156 12.445312 97.191406 12.527344 C 96.84375 12.605469 96.726562 12.632812 96.433594 12.675781 C 96.140625 12.714844 95.742188 13.355469 95.714844 13.960938 C 95.6875 14.5625 95.566406 15.550781 95.554688 15.980469 C 95.542969 16.410156 95.433594 16.421875 94.835938 16.582031 C 94.660156 16.632812 94.511719 16.699219 94.378906 16.792969 C 94.125 16.429688 93.945312 16.179688 93.945312 16.179688 C 93.722656 15.511719 92.839844 15.511719 92.246094 15.421875 C 91.761719 15.265625 91.695312 14.824219 91.695312 14.824219 L 91.648438 14.757812 C 92.089844 14.625 91.957031 13.867188 92.203125 13.558594 C 92.53125 13.535156 92.398438 12.980469 92.398438 12.980469 C 92.398438 12.980469 92.355469 12.601562 92.332031 11.890625 C 92.3125 11.179688 91.605469 10.871094 91.230469 10.800781 C 90.855469 10.734375 90.148438 10.957031 89.886719 11.179688 C 89.621094 11.402344 89.574219 11.78125 89.488281 12.179688 C 89.398438 12.578125 89.753906 12.710938 89.773438 12.78125 C 89.792969 12.835938 89.78125 13.074219 89.75 13.304688 C 88.980469 11.042969 87.496094 11.765625 87.234375 11.710938 C 86.953125 11.65625 86.601562 11.484375 86.507812 11.261719 C 86.417969 11.039062 86.640625 10.253906 86.640625 10.253906 C 86.640625 10.253906 87.046875 10.179688 87.160156 9.824219 C 87.269531 9.46875 86.917969 9.597656 86.917969 9.597656 L 87.027344 9.46875 L 87.027344 8.851562 C 87.027344 8.570312 86.972656 7.84375 86.453125 7.28125 C 85.933594 6.722656 84.652344 7.078125 84.226562 7.507812 C 83.800781 7.9375 83.875 8.085938 83.890625 8.273438 C 83.910156 8.460938 83.835938 8.367188 83.726562 8.816406 C 83.613281 9.261719 84.078125 9.167969 84.078125 9.167969 C 84.078125 9.167969 84.078125 9.394531 84.078125 9.953125 C 84.078125 10.515625 84.410156 10.347656 84.410156 10.347656 C 84.410156 10.347656 84.46875 10.476562 84.46875 10.871094 C 84.46875 11.261719 84.710938 11.113281 84.839844 11.503906 C 84.96875 11.898438 84.859375 11.933594 84.652344 12.421875 C 84.542969 12.679688 84.363281 12.761719 84.15625 12.839844 C 83.886719 10.8125 82.378906 11.253906 82.378906 11.253906 C 82.378906 11.253906 82.46875 10.15625 82.46875 9.71875 C 82.46875 9.285156 82.105469 8.253906 81.695312 7.25 C 81.289062 6.242188 79.742188 6.929688 79.402344 7.226562 C 79.058594 7.523438 78.265625 8.964844 77.921875 9.582031 C 77.589844 10.183594 77.496094 11.242188 77.492188 11.296875 C 77.425781 10.976562 77.363281 10.585938 77.300781 10.085938 C 77.066406 8.125 75.882812 7.757812 75.515625 7.675781 C 75.148438 7.597656 75.148438 7.28125 74.726562 6.9375 C 74.304688 6.59375 73.648438 6.75 73.464844 6.75 C 73.28125 6.75 73.386719 6.246094 73.410156 5.929688 C 73.4375 5.613281 73.515625 5.347656 73.859375 5.347656 C 74.199219 5.347656 74.09375 5.1875 74.09375 4.898438 C 74.09375 4.605469 74.09375 3.917969 74.070312 3.734375 C 74.042969 3.546875 74.175781 3.203125 73.597656 2.277344 C 73.019531 1.351562 71.414062 1.855469 70.679688 2.597656 C 69.941406 3.335938 70.414062 4.261719 70.441406 4.898438 C 70.46875 5.53125 70.492188 5.269531 70.703125 5.558594 C 70.914062 5.851562 71.257812 6.378906 71.257812 6.378906 L 71.28125 6.75 C 71.28125 6.75 70.914062 6.960938 70.574219 7.066406 C 70.230469 7.175781 70.257812 7.386719 70.019531 7.386719 C 69.785156 7.386719 69.519531 7.519531 69.230469 7.941406 C 68.574219 8.167969 68.25 8.863281 68.101562 9.597656 C 68 9.558594 67.925781 9.539062 67.925781 9.539062 C 67.925781 9.539062 68.082031 9.433594 68.1875 9.183594 C 68.171875 8.953125 66.691406 8.386719 66.691406 8.386719 L 66.640625 8.28125 C 66.640625 8.28125 67.097656 7.941406 67.292969 7.554688 C 67.484375 7.164062 67.433594 6.863281 67.433594 6.863281 C 67.433594 6.863281 67.574219 6.808594 67.695312 6.292969 C 67.855469 5.675781 67.539062 5.726562 67.539062 5.726562 C 67.539062 5.726562 67.539062 5.53125 67.503906 4.804688 C 67.46875 4.078125 66.710938 3.175781 65.40625 3.601562 C 64.105469 4.027344 64.210938 5.089844 64.085938 5.601562 C 63.964844 6.117188 64.050781 6.328125 64.050781 6.578125 C 64.050781 6.828125 63.785156 7.835938 63.539062 8.171875 C 63.34375 8.441406 62.519531 8.6875 62.113281 8.8125 C 61.988281 8.695312 61.839844 8.582031 61.667969 8.472656 C 60.507812 7.957031 58.945312 7.648438 58.945312 7.648438 L 58.8125 6.960938 C 58.8125 6.960938 59.195312 7.035156 59.289062 6.691406 C 59.386719 6.347656 59.441406 6.097656 59.402344 6.003906 C 59.367188 5.90625 59.25 5.925781 59.289062 5.773438 C 59.328125 5.617188 59.367188 5.371094 59.386719 5.179688 C 59.402344 4.984375 59.441406 4.890625 59.421875 4.773438 C 59.402344 4.660156 59.269531 4.488281 59.328125 4.355469 C 59.386719 4.21875 59.308594 3.914062 59.117188 3.703125 C 58.929688 3.492188 58.507812 3.203125 58.355469 2.992188 C 58.203125 2.78125 57.878906 2.648438 57.710938 2.742188 C 57.539062 2.839844 57.40625 2.898438 57.101562 2.878906 C 56.796875 2.859375 56.472656 3.109375 56.359375 3.183594 C 56.242188 3.261719 55.691406 3.28125 55.632812 3.566406 C 55.578125 3.855469 55.425781 4.125 55.367188 4.296875 C 55.3125 4.46875 55.121094 5.140625 55.214844 5.195312 C 55.3125 5.253906 55.460938 5.675781 55.460938 5.675781 C 55.460938 5.675781 55.234375 5.925781 55.367188 6.097656 C 55.5 6.269531 55.558594 6.289062 55.5 6.460938 C 55.445312 6.632812 55.367188 6.863281 55.480469 6.882812 C 55.597656 6.902344 55.902344 7.019531 55.957031 7.246094 C 56.015625 7.476562 56.375 7.382812 56.453125 7.382812 C 56.527344 7.382812 56.566406 8.070312 56.566406 8.070312 C 56.566406 8.070312 56.472656 8.246094 56.128906 8.398438 C 55.785156 8.550781 54.855469 8.953125 54.625 9.261719 C 54.488281 9.445312 54.160156 9.570312 53.941406 10 C 53.910156 9.945312 53.878906 9.890625 53.847656 9.839844 C 53.15625 8.664062 51.152344 8.367188 51.152344 8.367188 L 51.117188 8.347656 C 50.65625 8.347656 49.933594 7.703125 49.949219 7.371094 C 49.96875 7.039062 49.902344 6.609375 49.902344 6.609375 C 49.902344 6.609375 49.96875 6.578125 50.148438 6.097656 C 50.328125 5.617188 50.132812 5.300781 50.132812 5.300781 C 50.132812 5.300781 50.230469 5.019531 49.703125 4.109375 C 49.179688 3.199219 48.289062 2.6875 47.269531 3.332031 C 46.25 3.976562 46.300781 4.871094 46.613281 6.261719 C 46.925781 7.652344 47.253906 7.472656 47.515625 7.6875 C 47.78125 7.902344 47.683594 8.167969 47.765625 8.429688 C 47.847656 8.695312 47.15625 9.09375 46.726562 9.226562 C 46.347656 9.34375 45.746094 9.90625 45.410156 10.332031 C 45.378906 10.320312 45.351562 10.3125 45.320312 10.3125 C 45.113281 10.3125 44.90625 10.429688 44.582031 10.195312 C 44.257812 9.957031 44.582031 9.691406 44.554688 9.542969 C 44.523438 9.394531 44.582031 8.800781 44.761719 8.621094 C 44.9375 8.445312 44.90625 8 44.90625 7.761719 C 44.90625 7.527344 44.964844 7.464844 45.023438 7.140625 C 45.082031 6.8125 44.878906 6.875 44.699219 6.753906 C 44.523438 6.636719 44.820312 6.546875 44.847656 6.28125 C 44.878906 6.011719 44.761719 5.925781 44.40625 5.746094 C 44.054688 5.570312 44.289062 5.6875 44.289062 5.421875 C 44.289062 5.152344 44.054688 5.152344 43.847656 5.152344 C 43.640625 5.152344 43.347656 4.886719 43.226562 4.769531 C 43.109375 4.648438 42.667969 4.769531 42.433594 4.855469 C 42.199219 4.945312 42.078125 5.214844 41.636719 5.507812 C 41.195312 5.804688 41.3125 6.132812 41.285156 6.960938 C 41.253906 7.792969 41.636719 8.296875 41.785156 8.949219 C 41.933594 9.601562 42.019531 9.75 42.109375 10.105469 C 42.199219 10.460938 41.460938 10.429688 40.753906 10.667969 C 40.046875 10.90625 39.371094 12.566406 39.253906 13.128906 C 39.136719 13.691406 39.605469 13.839844 39.605469 13.839844 C 39.605469 13.839844 39.585938 14.535156 39.511719 15.332031 C 39.527344 14.863281 39.09375 14.5625 39.152344 14.5625 C 39.226562 14.5625 39.511719 14.636719 39.535156 14.359375 C 39.558594 14.085938 38.941406 12.695312 38.761719 12.65625 C 38.582031 12.621094 37.796875 12.308594 37.796875 12.308594 C 37.796875 12.308594 38.070312 12.023438 37.988281 11.640625 C 37.902344 11.253906 37.761719 11.015625 37.761719 11.015625 C 37.761719 11.015625 37.949219 11.183594 38.105469 11.339844 C 38.261719 11.496094 38.414062 11.292969 38.414062 11.292969 C 38.414062 11.292969 38.367188 11.253906 38.285156 11.253906 C 38.203125 11.253906 37.964844 11.027344 37.964844 11.027344 C 37.964844 11.027344 38.273438 10.980469 38.628906 11.183594 C 38.988281 11.386719 38.652344 11.386719 38.628906 11.445312 C 38.605469 11.507812 38.796875 11.710938 38.832031 11.277344 C 38.867188 10.847656 38.4375 10.847656 38.308594 10.789062 C 38.175781 10.726562 38.378906 10.621094 38.511719 10.738281 C 38.640625 10.859375 38.796875 10.789062 38.878906 10.761719 C 38.964844 10.738281 39.140625 10.75 39.285156 10.859375 C 39.367188 10.597656 38.890625 10.199219 38.890625 10.199219 C 38.890625 10.199219 39.082031 10.308594 39.179688 9.925781 C 39.273438 9.515625 38.476562 9.515625 38.476562 9.515625 C 38.476562 9.515625 38.675781 9.613281 38.761719 9.625 C 38.84375 9.636719 38.808594 9.746094 38.675781 9.886719 C 38.546875 10.03125 38.1875 9.828125 38.058594 9.347656 C 37.925781 8.871094 37.785156 8.292969 37.476562 7.851562 C 37.164062 7.40625 36.535156 7.011719 35.722656 7.25 C 34.914062 7.492188 34.734375 8.125 34.722656 8.523438 C 34.710938 8.917969 34.558594 10.007812 34.558594 10.261719 C 34.558594 10.511719 34.472656 10.644531 34.105469 11.277344 C 33.734375 11.914062 34.210938 11.9375 34.210938 11.625 C 34.210938 11.316406 34.820312 11.351562 34.820312 11.351562 C 34.820312 11.351562 34.914062 11.6875 34.832031 11.84375 C 34.75 12 33.59375 12.371094 33.507812 12.464844 C 33.425781 12.5625 32.832031 13.089844 32.699219 13.519531 C 32.570312 13.953125 32.175781 14.695312 32.175781 14.695312 L 32.652344 14.804688 C 32.652344 14.804688 32.6875 15.257812 32.6875 15.476562 C 32.6875 15.691406 32.617188 17.226562 32.519531 17.632812 C 32.425781 18.039062 32.332031 19.480469 32.269531 20.292969 C 32.210938 21.109375 32.246094 23.6875 32.234375 24.191406 C 32.222656 24.695312 33.496094 25.257812 33.496094 25.257812 L 33.496094 25.484375 L 33.832031 25.59375 C 33.832031 25.59375 34.035156 28.195312 34.007812 28.398438 C 33.984375 28.601562 33.960938 29.117188 33.570312 29.527344 C 33.402344 29.699219 33.25 29.992188 33.125 30.347656 C 33.007812 29.320312 32.820312 28.042969 32.566406 27.246094 C 32.089844 25.738281 31.804688 24.824219 31.769531 24.632812 C 31.738281 24.441406 31.929688 23.605469 32.011719 22.917969 C 32.089844 22.230469 32.058594 21.554688 31.945312 21.121094 C 31.835938 20.691406 31.738281 20.691406 31.929688 20.273438 C 32.121094 19.855469 32.25 18.71875 32.121094 17.855469 C 31.996094 16.988281 30.847656 16.828125 30.5625 16.539062 C 30.273438 16.25 30.257812 15.980469 30.210938 15.785156 C 30.164062 15.59375 30.625 15 30.703125 14.761719 C 30.785156 14.519531 30.738281 13.574219 30.640625 13.351562 C 30.546875 13.125 30.132812 12.628906 29.621094 12.582031 C 29.113281 12.53125 28.492188 12.726562 28.414062 12.949219 C 28.332031 13.175781 28.207031 13.460938 28.125 13.847656 C 28.046875 14.230469 28.0625 15.355469 28.0625 15.355469 C 28.0625 15.433594 27.710938 15.53125 27.539062 15.578125 C 27.363281 15.625 27.28125 15.691406 27.140625 15.820312 C 26.996094 15.945312 27.011719 15.929688 26.550781 16.539062 C 26.089844 17.148438 26.628906 17.484375 26.628906 17.484375 C 26.628906 17.484375 26.582031 17.710938 26.4375 18.445312 C 26.296875 19.183594 26.28125 20.625 26.375 21.1875 C 26.46875 21.75 26.933594 22.582031 26.933594 22.582031 C 26.933594 22.582031 26.773438 23.65625 26.695312 23.929688 C 26.613281 24.199219 26.121094 27.644531 26.039062 28.414062 C 25.960938 29.183594 25.277344 32.46875 25.277344 32.46875 C 25.277344 32.46875 26.28125 32.695312 26.359375 32.726562 C 26.4375 32.757812 26.3125 32.980469 26.296875 33.078125 C 26.28125 33.175781 26.167969 33.300781 26.152344 33.527344 C 26.136719 33.75 26.089844 33.609375 25.851562 33.816406 C 25.609375 34.023438 25.5 34.441406 25.355469 34.664062 C 25.214844 34.890625 25.132812 35.289062 24.878906 36.042969 C 24.625 36.796875 25.195312 36.652344 25.355469 36.460938 C 25.515625 36.265625 25.835938 36.171875 26.007812 35.835938 C 26.183594 35.5 26.773438 34.839844 26.980469 34.441406 C 27.1875 34.039062 28.175781 32.949219 28.175781 32.949219 L 29.78125 33.09375 C 29.78125 33.09375 29.828125 33.671875 29.828125 33.910156 C 29.828125 34.152344 29.796875 34.746094 29.703125 34.953125 C 29.605469 35.160156 29.558594 35.304688 29.558594 35.515625 C 29.558594 35.722656 29.191406 36.652344 29.082031 37.132812 C 28.96875 37.613281 28.746094 38.09375 29.671875 37.855469 C 30.59375 37.613281 30.515625 36.714844 30.53125 36.570312 C 30.546875 36.425781 30.6875 36.378906 30.832031 36.25 C 30.976562 36.125 30.800781 36.058594 30.738281 35.820312 C 30.671875 35.578125 30.863281 34.984375 30.976562 34.167969 C 31.085938 33.351562 31.421875 32.566406 31.421875 32.566406 C 31.421875 32.566406 31.867188 32.4375 32.25 32.164062 C 32.410156 32.050781 32.617188 32 32.804688 31.976562 C 32.753906 32.898438 33.007812 33.882812 32.996094 34.285156 C 32.984375 34.691406 32.84375 35.183594 32.832031 35.601562 C 32.820312 36.023438 32.902344 36.359375 32.9375 36.945312 C 32.972656 37.535156 34.152344 38.035156 34.710938 37.894531 C 35.273438 37.75 34.832031 37.222656 34.523438 36.515625 C 34.210938 35.808594 34.082031 35.171875 34.082031 34.523438 C 34.082031 33.878906 34.425781 33.0625 34.664062 32.332031 C 34.902344 31.597656 35.105469 30.746094 35.4375 30.078125 C 35.773438 29.40625 35.960938 29.140625 35.960938 28.78125 C 35.960938 28.421875 36.449219 27.488281 36.449219 27.488281 C 36.449219 27.488281 36.308594 28.648438 36.332031 28.839844 C 36.355469 29.035156 36.152344 29.667969 36.082031 30.339844 C 36.011719 31.011719 36.296875 32.652344 36.425781 33.242188 C 36.558594 33.828125 36.4375 34.585938 36.355469 34.824219 C 36.273438 35.0625 36.152344 35.832031 36.355469 36.09375 C 36.558594 36.359375 36.605469 36.609375 36.605469 36.609375 C 36.605469 36.609375 37.117188 36.597656 37.210938 36.597656 C 37.308594 36.597656 37.582031 36.800781 37.785156 37.1875 C 37.988281 37.570312 39.058594 37.59375 39.25 37.460938 C 39.441406 37.328125 39.164062 36.851562 39 36.632812 C 38.832031 36.417969 38.390625 36.167969 38.140625 35.820312 C 37.890625 35.472656 37.664062 34.703125 37.675781 34.511719 C 37.6875 34.320312 37.664062 33.144531 37.902344 31.804688 C 38.140625 30.460938 37.925781 29.105469 37.925781 29.105469 C 37.925781 29.105469 38.046875 28.480469 38.070312 28.097656 C 38.09375 27.714844 38.226562 27.761719 38.449219 26.960938 C 38.675781 26.15625 39.023438 25.054688 39.023438 25.054688 L 39.214844 24.921875 L 39.191406 24.695312 L 39.308594 24.8125 C 39.308594 24.8125 39.546875 24.824219 39.582031 24.824219 C 39.617188 24.824219 40.179688 24.863281 40.355469 24.476562 C 40.378906 24.429688 40.398438 24.375 40.414062 24.316406 C 40.460938 24.328125 40.488281 24.335938 40.488281 24.335938 C 40.488281 24.335938 40.519531 25.046875 40.609375 25.402344 C 40.695312 25.757812 40.84375 26.144531 40.578125 27.597656 C 40.3125 29.050781 40.222656 31.777344 40.222656 31.777344 C 40.222656 31.777344 40.460938 33.4375 40.460938 34.328125 C 40.460938 35.214844 40.195312 35.214844 40.046875 36.195312 C 39.902344 37.171875 41.285156 37.707031 41.785156 37.527344 C 42.285156 37.351562 42.167969 36.757812 41.785156 35.929688 C 41.402344 35.097656 41.84375 32.726562 41.902344 31.09375 C 41.960938 29.464844 42.285156 28.992188 42.433594 27.953125 C 42.582031 26.914062 42.609375 24.277344 42.609375 24.277344 L 43.082031 24.367188 L 43.40625 24.394531 C 43.40625 24.394531 43.316406 26.5 43.316406 27.390625 C 43.316406 28.277344 43.992188 29.078125 43.992188 30.175781 C 43.992188 31.273438 44.316406 33.734375 44.054688 35.066406 C 43.789062 36.402344 43.226562 36.046875 42.375 36.996094 C 41.519531 37.945312 43.109375 37.972656 43.816406 37.882812 C 44.523438 37.796875 45.171875 37.230469 45.289062 37.023438 C 45.40625 36.816406 46.054688 36.136719 46.203125 35.808594 C 46.351562 35.484375 45.703125 35.039062 45.703125 35.039062 C 45.703125 35.039062 45.464844 34.625 45.464844 34.386719 C 45.464844 34.148438 45.703125 31.957031 45.761719 30.085938 C 45.820312 28.21875 45.347656 27.210938 45.378906 26.46875 C 45.398438 25.972656 45.484375 25.113281 45.539062 24.601562 C 45.570312 25.230469 45.609375 26.015625 45.609375 26.292969 C 45.609375 26.742188 45.839844 27.488281 46.167969 28.84375 C 46.496094 30.203125 46.464844 30.632812 46.433594 31.625 C 46.398438 32.617188 46.925781 32.269531 47.105469 32.320312 C 47.285156 32.371094 46.972656 32.46875 46.828125 32.703125 C 46.679688 32.933594 47.238281 33.097656 47.238281 33.097656 C 47.238281 33.097656 47.269531 33.546875 47.453125 33.761719 C 47.632812 33.976562 47.960938 34.027344 48.09375 33.925781 C 48.222656 33.828125 48.175781 34.007812 48.222656 34.160156 C 48.273438 34.308594 48.242188 34.421875 48.242188 34.65625 C 48.242188 34.886719 48.175781 34.835938 48.042969 35.070312 C 47.910156 35.300781 47.863281 35.929688 47.730469 36.226562 C 47.597656 36.527344 47.1875 36.921875 47.089844 37.371094 C 46.992188 37.816406 48.078125 38 48.652344 37.882812 C 49.226562 37.765625 49.472656 37.054688 49.472656 36.957031 C 49.472656 36.855469 49.851562 36.839844 49.96875 36.609375 C 50.082031 36.375 49.902344 35.714844 49.804688 35.417969 C 49.703125 35.117188 49.738281 34.226562 49.574219 33.976562 C 49.40625 33.726562 49.605469 32.984375 49.703125 32.917969 C 49.804688 32.851562 49.867188 32.601562 49.851562 32.355469 C 49.835938 32.105469 50 32.140625 50.050781 31.59375 C 50.097656 31.046875 49.441406 31.328125 49.441406 31.328125 C 49.441406 31.328125 49.425781 30.699219 49.242188 29.988281 C 49.0625 29.273438 48.964844 28.613281 48.929688 28.132812 C 48.898438 27.652344 49.160156 27.4375 49.144531 27.289062 C 49.128906 27.140625 49.261719 26.542969 49.359375 26.261719 C 49.457031 25.980469 49.457031 24.96875 49.457031 24.96875 L 49.574219 24.953125 C 49.574219 24.953125 49.722656 25.300781 50.035156 25.996094 C 50.34375 26.691406 50.742188 27.703125 50.9375 28.183594 C 51.136719 28.660156 51.367188 29.855469 51.628906 30.53125 C 51.890625 31.210938 52.46875 32.371094 52.53125 32.453125 C 52.597656 32.535156 52.53125 32.652344 52.335938 32.851562 C 52.136719 33.050781 52.433594 33.28125 52.8125 33.464844 C 53.191406 33.644531 53.042969 33.511719 53.109375 33.746094 C 53.175781 33.976562 53.386719 34.074219 53.765625 34.074219 C 54.144531 34.074219 53.863281 34.621094 53.800781 34.621094 C 53.734375 34.621094 53.371094 34.835938 53.238281 35.003906 C 53.109375 35.167969 53.289062 35.53125 53.207031 35.714844 C 53.125 35.898438 53.257812 36.046875 53.238281 36.226562 C 53.222656 36.410156 52.761719 36.609375 52.515625 37.054688 C 52.269531 37.503906 52.992188 37.734375 53.78125 37.652344 C 54.570312 37.570312 54.785156 37.734375 54.933594 37.503906 C 55.082031 37.269531 55.671875 36.957031 55.871094 36.675781 C 56.070312 36.394531 56.117188 36.160156 55.9375 35.863281 C 55.757812 35.566406 55.492188 34.636719 55.378906 34.308594 C 55.261719 33.976562 55.277344 34.109375 55.492188 33.660156 C 55.707031 33.214844 55.773438 33.097656 55.773438 32.816406 C 55.773438 32.535156 55.542969 31.707031 55.3125 31.542969 C 55.082031 31.378906 55.03125 30.683594 54.671875 30.117188 C 54.308594 29.554688 54.308594 29.308594 54.078125 28.679688 C 53.847656 28.050781 54.046875 27.355469 54.175781 26.527344 C 54.308594 25.699219 53.980469 24.273438 53.800781 23.414062 C 53.617188 22.554688 53.929688 21.675781 53.996094 21.292969 C 54.0625 20.914062 54.175781 20.433594 54.175781 20.25 C 54.175781 20.070312 54.113281 19.523438 54.242188 17.734375 C 54.375 15.949219 54.40625 15.566406 54.144531 15.167969 C 54.027344 14.988281 53.996094 14.589844 54.003906 14.203125 C 54.007812 14.210938 54.011719 14.21875 54.015625 14.222656 C 54.433594 14.894531 54.871094 15.488281 55.121094 15.796875 C 55.367188 16.101562 55.710938 16.410156 55.710938 16.410156 C 55.710938 16.410156 55.367188 16.695312 55.367188 17.617188 C 55.367188 18.539062 54.988281 20.570312 55.386719 22.0625 C 55.785156 23.558594 56.128906 25.113281 56.300781 26.148438 C 56.472656 27.183594 56.359375 27.679688 56.359375 27.851562 C 56.359375 28.023438 56.492188 28.238281 56.339844 28.964844 C 56.1875 29.691406 55.957031 30.574219 56.300781 31.53125 C 56.644531 32.492188 56.816406 33.832031 56.929688 34.425781 C 57.042969 35.023438 56.851562 35.652344 56.890625 35.960938 C 56.929688 36.265625 56.757812 36.632812 56.511719 36.863281 C 56.261719 37.089844 55.976562 37.457031 56.1875 37.53125 C 56.394531 37.609375 56.527344 37.628906 56.527344 37.628906 L 56.96875 37.761719 C 56.96875 37.761719 57.234375 37.667969 57.308594 37.839844 C 57.386719 38.011719 57.632812 37.859375 57.691406 37.761719 C 57.746094 37.667969 58.128906 37.707031 58.128906 37.1875 C 58.128906 36.671875 58.300781 36.058594 58.167969 35.367188 C 58.03125 34.675781 58.03125 32.855469 58.109375 32.605469 C 58.183594 32.359375 58.183594 30.976562 58.148438 30.191406 C 58.109375 29.40625 58.355469 28.484375 58.355469 26.894531 C 58.355469 25.304688 58.222656 23.558594 58.222656 23.175781 C 58.222656 22.792969 58.414062 22.5625 58.414062 22.5625 C 58.414062 22.5625 58.625 23.675781 58.8125 24.402344 C 59.003906 25.132812 59.234375 27.027344 59.175781 28.027344 C 59.117188 29.023438 59.136719 29.75 59.175781 30.671875 C 59.214844 31.589844 59.214844 31.78125 59.003906 32.070312 C 58.792969 32.359375 58.984375 32.511719 59.003906 32.96875 C 59.023438 33.429688 58.832031 34.484375 58.851562 34.90625 C 58.871094 35.328125 58.929688 35.65625 59.003906 36.019531 C 59.082031 36.382812 59.367188 36.421875 59.386719 36.34375 C 59.402344 36.269531 59.59375 36.210938 59.671875 36.230469 C 59.746094 36.25 59.898438 36.058594 59.898438 36.058594 C 59.898438 36.058594 60.070312 35.863281 60.183594 35.671875 C 60.296875 35.480469 60.355469 35.425781 60.355469 35.023438 C 60.355469 34.621094 60.183594 33.238281 60.144531 32.816406 C 60.109375 32.394531 60.144531 32.203125 60.144531 31.957031 C 60.144531 31.863281 60.199219 31.667969 60.269531 31.445312 C 60.367188 32.21875 60.5625 33 60.546875 33.417969 C 60.53125 33.914062 60.441406 33.683594 60.390625 33.984375 C 60.335938 34.285156 60.511719 34.816406 60.636719 34.976562 C 60.757812 35.136719 60.917969 35.046875 60.96875 35.191406 C 61.023438 35.332031 60.777344 35.597656 60.757812 35.792969 C 60.742188 35.988281 60.757812 36.324219 61.375 36.644531 C 61.992188 36.960938 62.027344 37.121094 62.414062 37.457031 C 62.800781 37.796875 63.769531 38.042969 64.472656 37.847656 C 65.179688 37.652344 65.003906 37.335938 64.773438 37.121094 C 64.542969 36.910156 64.226562 36.820312 64.226562 36.609375 C 64.226562 36.394531 64.210938 36.484375 63.964844 36.464844 C 63.71875 36.449219 62.941406 35.703125 62.941406 35.703125 L 62.960938 35.667969 C 62.925781 35.507812 63.398438 35.738281 63.769531 35.988281 C 64.140625 36.234375 64.28125 36.058594 64.96875 36.304688 C 65.652344 36.554688 66.042969 36.5 66.464844 36.269531 C 66.886719 36.039062 66.726562 35.613281 65.953125 35.3125 C 65.179688 35.011719 64.472656 34.800781 64.472656 34.800781 L 64.070312 34.339844 C 64.070312 34.339844 64.402344 33.964844 64.421875 33.59375 C 64.4375 33.222656 64.105469 32.921875 63.945312 32.867188 C 63.789062 32.8125 64.015625 31.394531 64.28125 30.5625 C 64.542969 29.730469 64.632812 29.339844 64.527344 28.984375 C 64.421875 28.628906 64.578125 28.558594 64.667969 28.472656 C 64.753906 28.382812 64.753906 28.382812 64.71875 28.222656 C 64.683594 28.0625 64.71875 27.78125 64.859375 27.636719 C 65.003906 27.496094 65.125 27.371094 64.984375 27.070312 C 64.84375 26.769531 65.125 26.734375 65.125 26.59375 C 65.125 26.449219 65.300781 26.078125 65.460938 25.828125 C 65.617188 25.582031 65.792969 25.175781 66.234375 24.179688 C 66.675781 23.1875 66.972656 21.910156 66.992188 21.679688 C 67.007812 21.449219 67.117188 21.414062 67.222656 21.257812 C 67.320312 21.101562 67.328125 20.902344 67.375 20.777344 C 67.390625 20.84375 67.429688 21.050781 67.367188 21.332031 C 67.289062 21.675781 67.578125 22.285156 67.734375 22.550781 C 67.890625 22.8125 68.46875 22.285156 68.46875 22.074219 C 68.46875 21.863281 68.65625 21.886719 68.65625 21.886719 L 68.417969 23.449219 L 69.8125 23.6875 C 69.8125 23.6875 70.074219 25.511719 70.101562 26.148438 C 70.125 26.785156 70.074219 29.007812 70.101562 30.488281 C 70.125 31.972656 70.835938 33.558594 71.152344 34.484375 C 71.46875 35.410156 70.96875 36.230469 70.679688 36.679688 C 70.390625 37.132812 70.230469 37.132812 70.496094 37.609375 C 70.757812 38.085938 72.28125 37.609375 72.28125 37.609375 C 72.28125 37.609375 72.414062 37.660156 72.441406 37.820312 C 72.464844 37.980469 73.492188 37.925781 74.070312 37.792969 C 74.648438 37.660156 74.386719 37.183594 74.386719 36.734375 C 74.386719 36.285156 74.226562 35.835938 74.175781 35.542969 C 74.121094 35.253906 74.226562 34.644531 74.226562 34.644531 C 74.226562 34.644531 75.304688 32.101562 75.488281 30.648438 C 75.660156 29.277344 75.53125 26.636719 75.539062 25.871094 C 75.753906 26.003906 75.949219 26.019531 76.398438 26.222656 C 77.011719 26.496094 77.035156 26.246094 77.035156 26.246094 C 77.035156 26.246094 77.035156 26.703125 77.128906 26.839844 C 77.21875 26.976562 77.035156 28.304688 76.945312 28.71875 C 76.855469 29.128906 76.375 29.542969 76.261719 29.792969 C 76.148438 30.042969 75.921875 32.148438 75.898438 33.042969 C 75.875 33.9375 75.648438 34.851562 75.648438 35.421875 C 75.648438 35.996094 75.511719 35.882812 75.46875 36.0625 C 75.421875 36.246094 75.742188 36.820312 76.285156 37.527344 C 76.832031 38.238281 77.945312 37.851562 78.082031 37.367188 C 78.21875 36.886719 77.355469 36.085938 77.285156 35.699219 C 77.21875 35.308594 77.242188 35.5625 77.285156 35.308594 C 77.332031 35.058594 77.265625 35.078125 77.105469 34.917969 C 76.945312 34.757812 77.921875 31.625 78.015625 31.144531 C 78.105469 30.664062 78.421875 29.863281 78.628906 29.5625 C 78.832031 29.265625 79.308594 27.503906 79.308594 27.503906 C 79.308594 27.503906 79.515625 27.457031 79.515625 27.160156 C 79.515625 26.863281 79.71875 25.46875 79.71875 25.46875 L 79.832031 25.167969 L 80.378906 25.191406 C 80.378906 25.191406 80.378906 25.535156 80.355469 26.429688 C 80.332031 27.320312 80.445312 27.871094 80.628906 28.511719 C 80.808594 29.152344 80.789062 29.359375 80.695312 29.769531 C 80.605469 30.183594 80.742188 31.691406 80.742188 32.652344 C 80.742188 33.617188 80.695312 34.875 80.695312 35.238281 C 80.695312 35.605469 80.789062 36.316406 80.855469 37.164062 C 80.925781 38.007812 82.015625 37.917969 82.445312 37.574219 C 82.878906 37.230469 82.378906 35.972656 82.128906 35.675781 C 81.878906 35.378906 81.902344 34.804688 81.96875 34.210938 C 82.039062 33.617188 82.71875 30.664062 82.765625 30.320312 C 82.8125 29.976562 82.71875 29.699219 82.582031 28.945312 C 82.445312 28.191406 82.445312 27.414062 82.492188 27.183594 C 82.539062 26.953125 82.855469 26.910156 82.742188 26.632812 C 82.628906 26.359375 82.96875 26.039062 83.015625 25.648438 C 83.0625 25.261719 82.8125 25.488281 82.925781 25.214844 C 83.039062 24.941406 83.582031 25.007812 83.949219 24.894531 C 84.3125 24.78125 84.152344 24.757812 84.175781 24.621094 C 84.199219 24.484375 83.855469 23.726562 83.855469 23.726562 L 84.042969 23.25 C 84.15625 23.347656 84.308594 23.40625 84.355469 23.554688 C 84.449219 23.835938 84.152344 24.226562 84.152344 24.226562 L 84.765625 24.546875 C 84.765625 24.546875 84.785156 24.808594 84.859375 25.441406 C 84.933594 26.078125 85.082031 27.722656 85.007812 28.824219 C 84.933594 29.925781 85.359375 30.898438 85.304688 31.347656 C 85.246094 31.796875 85.285156 33.382812 85.210938 33.871094 C 85.136719 34.355469 84.726562 34.972656 84.484375 35.457031 C 84.246094 35.941406 83.800781 36.691406 83.613281 37.457031 C 83.429688 38.222656 84.746094 37.847656 85.023438 37.644531 C 85.304688 37.4375 85.507812 36.953125 85.453125 36.710938 C 85.394531 36.464844 85.859375 35.644531 85.859375 35.644531 C 85.898438 35.476562 86.136719 35.625 86.175781 35.832031 C 86.210938 36.035156 86.175781 36.09375 86.046875 36.671875 C 85.914062 37.25 86.769531 37.4375 87.363281 37.492188 C 87.957031 37.550781 87.640625 36.148438 87.472656 35.71875 C 87.308594 35.289062 87.472656 34.859375 87.34375 34.636719 C 87.214844 34.410156 87.085938 34.148438 86.84375 33.496094 C 86.601562 32.839844 86.824219 32.878906 86.84375 32.429688 C 86.863281 31.980469 86.9375 31.722656 87.175781 30.992188 C 87.417969 30.261719 87.492188 29.308594 87.4375 28.789062 C 87.382812 28.265625 87.585938 27.667969 87.640625 27.421875 C 87.695312 27.179688 88.402344 25.574219 88.570312 25.292969 C 88.621094 25.207031 88.679688 25.113281 88.738281 25.035156 C 88.738281 25.050781 88.738281 25.070312 88.738281 25.085938 L 88.738281 27.0625 L 89.089844 27.128906 C 89.089844 27.128906 89.179688 27.773438 89.265625 28.0625 C 89.355469 28.351562 89.332031 29.195312 89.332031 29.683594 C 89.332031 30.171875 89.113281 30.507812 89.222656 31.707031 C 89.332031 32.90625 89.796875 34.171875 89.820312 34.546875 C 89.839844 34.925781 90.039062 35.257812 90.039062 35.75 C 90.039062 36.238281 89.996094 36.769531 90.171875 37.523438 C 90.347656 38.28125 91.539062 37.746094 91.5625 37.546875 C 91.5625 37.8125 92.753906 37.96875 92.796875 37.503906 C 92.808594 37.363281 92.832031 37.203125 92.851562 37.039062 C 92.851562 37.070312 92.851562 37.101562 92.855469 37.136719 C 92.882812 37.710938 93.226562 37.539062 93.691406 37.820312 C 94.15625 38.101562 94.332031 37.726562 94.316406 37.378906 C 94.304688 37.027344 94.171875 36.546875 94.132812 36.210938 C 94.089844 35.878906 94.210938 36.132812 94.277344 35.902344 C 94.34375 35.675781 94.316406 35.085938 94.316406 35.085938 C 94.316406 35.085938 94.730469 34.992188 94.597656 34.832031 C 94.464844 34.671875 94.609375 34.566406 94.648438 34.125 C 94.691406 33.679688 95.101562 32.8125 95.222656 32.316406 C 95.34375 31.820312 95.886719 31.070312 96.058594 30.132812 C 96.234375 29.195312 96.367188 29.035156 96.511719 28.085938 C 96.660156 27.132812 96.859375 26.316406 96.910156 26.359375 C 96.964844 26.398438 97.164062 28.417969 97.136719 28.863281 C 97.109375 29.304688 97.085938 30.359375 97.148438 31.003906 C 97.21875 31.644531 97.21875 32.945312 97.21875 33.320312 C 97.21875 33.695312 97.308594 34.429688 97.285156 35.0625 C 97.257812 35.691406 97.285156 35.570312 97.285156 35.730469 C 97.285156 35.890625 97.308594 35.984375 97.441406 36.332031 C 97.578125 36.679688 97.429688 37.148438 97.429688 37.148438 C 97.429688 37.148438 97.800781 37.214844 98.09375 37.484375 C 98.386719 37.75 98.679688 37.914062 99.359375 37.804688 C 99.453125 37.789062 99.515625 37.765625 99.554688 37.730469 C 99.828125 37.714844 100.191406 37.515625 100.296875 37.335938 C 100.457031 37.050781 100.242188 36.46875 100.242188 36.46875 L 100.511719 36.46875 C 100.511719 36.46875 100.402344 36.007812 100.417969 35.375 C 100.429688 34.738281 99.824219 34.671875 99.824219 34.671875 C 99.824219 34.671875 99.917969 33.875 100.054688 33.535156 C 100.1875 33.199219 100.199219 32.820312 100.253906 32.632812 C 100.308594 32.441406 100.199219 31.632812 100.199219 31.632812 C 100.199219 31.632812 100.550781 31.457031 100.550781 31.210938 C 100.550781 30.96875 100.710938 30.050781 100.765625 29.578125 C 100.820312 29.105469 100.832031 28.78125 100.992188 28.375 C 101.152344 27.96875 101.25 28.007812 101.25 28.007812 C 101.25 28.007812 101.234375 27.726562 101.273438 27.441406 C 101.316406 27.15625 101.542969 26.320312 101.609375 26.253906 C 101.675781 26.183594 101.652344 26.292969 101.71875 26.46875 C 101.785156 26.644531 101.90625 28.171875 101.960938 29.480469 C 102.1875 30.710938 101.945312 31.132812 101.945312 31.132812 L 102.308594 31.253906 C 102.308594 31.253906 102.347656 31.847656 102.347656 32.414062 C 102.347656 32.984375 102.417969 33.441406 102.550781 33.941406 C 102.683594 34.441406 102.617188 34.859375 102.484375 35.183594 C 102.347656 35.511719 102.375 35.523438 102.28125 35.644531 C 102.1875 35.765625 102.242188 35.914062 102.203125 36.308594 C 102.160156 36.699219 101.839844 37.105469 101.851562 37.578125 C 101.867188 38.050781 102.1875 37.96875 102.738281 37.699219 C 103.289062 37.429688 103.140625 37.078125 103.179688 36.605469 C 103.222656 36.132812 103.261719 35.902344 103.234375 35.605469 C 103.207031 35.308594 103.289062 35.011719 103.300781 34.402344 C 103.394531 33.792969 103.679688 32.105469 103.679688 32.105469 L 103.839844 32.035156 L 103.785156 31.078125 L 104.09375 31.050781 C 104.09375 31.050781 104.027344 29.523438 104.082031 28.820312 C 104.132812 28.117188 104.1875 27.292969 104.203125 26.914062 C 104.214844 26.535156 104.132812 25.738281 103.988281 25.480469 C 103.839844 25.226562 103.796875 24.496094 104.027344 24.15625 C 104.253906 23.820312 103.785156 23.589844 103.746094 23.414062 C 103.703125 23.238281 103.609375 23.023438 103.824219 22.929688 C 104.039062 22.832031 103.933594 22.683594 103.933594 22.589844 C 103.933594 22.496094 104.027344 22.507812 104.027344 22.507812 Z M 34.175781 19.191406 C 34.105469 20.089844 34.023438 20.738281 33.867188 21 C 33.710938 21.265625 33.699219 21.398438 33.726562 21.660156 C 33.75 21.925781 33.628906 22.535156 33.628906 22.535156 C 33.628906 22.535156 33.652344 23.601562 33.628906 23.472656 C 33.605469 23.339844 33.320312 22.859375 33.320312 22.859375 L 33.332031 22.570312 L 33.234375 22.511719 C 33.234375 22.511719 33.140625 22.34375 33.140625 21.9375 C 33.140625 21.527344 33.449219 19.777344 33.640625 18.964844 C 33.832031 18.148438 33.972656 17.023438 33.972656 17.023438 C 33.972656 17.023438 34.082031 17.226562 34.117188 17.296875 C 34.152344 17.371094 34.25 18.292969 34.175781 19.191406 Z M 39.105469 16.445312 C 39.117188 16.0625 39.238281 16.195312 39.464844 15.582031 C 39.484375 15.523438 39.496094 15.46875 39.503906 15.414062 C 39.457031 15.933594 39.386719 16.492188 39.28125 16.921875 C 39.242188 17.09375 39.214844 17.253906 39.191406 17.410156 C 39.132812 17.035156 39.101562 16.679688 39.105469 16.445312 Z M 53.121094 20.476562 C 52.9375 20.589844 52.75 20.523438 52.730469 19.757812 C 52.707031 18.992188 52.519531 16.761719 52.519531 15.601562 C 52.519531 14.441406 52.613281 13.769531 52.613281 13.769531 C 52.613281 13.769531 52.820312 14.234375 52.820312 15.460938 C 52.820312 16.691406 52.820312 17.785156 52.914062 18.269531 C 53.003906 18.757812 53.304688 20.359375 53.121094 20.476562 Z M 55.195312 13.632812 C 55.082031 13.59375 55.027344 13.4375 55.121094 13.246094 C 55.214844 13.054688 55.40625 12.039062 55.519531 12.175781 C 55.519531 12.175781 55.652344 13.152344 55.730469 13.59375 C 55.804688 14.035156 55.824219 14.378906 55.824219 14.378906 C 55.824219 14.378906 55.3125 13.667969 55.195312 13.632812 Z M 61.660156 14.097656 C 61.5 15.503906 61.183594 15.929688 61.183594 15.929688 C 61.183594 15.929688 61.332031 14.082031 61.496094 13.0625 C 61.566406 12.808594 61.632812 12.628906 61.6875 12.585938 C 61.726562 12.777344 61.761719 13.203125 61.660156 14.097656 Z M 68.261719 22.101562 C 67.945312 22.207031 68.023438 21.835938 68.261719 21.199219 C 68.261719 21.199219 68.574219 21.996094 68.261719 22.101562 Z M 68.917969 20.140625 C 68.917969 20.140625 68.867188 19.691406 68.917969 19.242188 C 68.96875 18.792969 69.179688 18.632812 69.234375 19.082031 C 69.285156 19.53125 69.128906 20.222656 68.917969 20.140625 Z M 73.359375 29.378906 C 73.308594 30.621094 73.097656 32.316406 73.097656 32.925781 C 73.097656 33.53125 72.941406 34.378906 72.941406 34.378906 C 72.941406 34.378906 72.730469 36.207031 72.546875 35.886719 C 72.363281 35.570312 72.28125 34.195312 72.28125 33.164062 C 72.28125 32.128906 72.335938 30.117188 72.28125 29.75 C 72.230469 29.378906 71.992188 28.796875 72.203125 27.710938 C 72.414062 26.625 72.308594 24.957031 72.308594 24.695312 C 72.308594 24.429688 72.464844 23.742188 72.464844 23.742188 L 73.148438 23.742188 C 73.148438 23.742188 73.230469 26.203125 73.230469 26.730469 C 73.230469 27.261719 73.414062 28.132812 73.359375 29.378906 Z M 76.582031 13.628906 C 76.511719 14.296875 76.425781 15.066406 76.292969 15.691406 C 76.242188 14.382812 76.066406 12.308594 76.066406 12.308594 C 76.066406 12.308594 76.316406 12.945312 76.582031 13.625 Z M 76.605469 20.113281 C 76.53125 20.230469 76.449219 20.375 76.359375 20.535156 C 76.359375 20.511719 76.359375 20.484375 76.355469 20.460938 C 76.3125 19.339844 76.324219 17.945312 76.316406 16.792969 C 76.589844 17.382812 77.265625 17.640625 77.265625 17.640625 C 77.265625 17.640625 76.921875 19.585938 76.605469 20.113281 Z M 84.632812 17.960938 C 84.710938 18.140625 84.632812 18.34375 84.585938 18.46875 C 84.535156 18.59375 84.433594 19.125 84.433594 19.125 L 84.207031 19.125 C 84.207031 19.125 84.484375 18.621094 84.183594 18.316406 C 84.179688 18.316406 84.179688 18.316406 84.179688 18.3125 C 84.191406 17.863281 84.203125 17.25 84.207031 16.378906 L 84.332031 16.445312 C 84.332031 16.445312 84.558594 17.785156 84.632812 17.960938 Z M 90.085938 13.777344 C 90.085938 13.777344 90.171875 14.246094 90.261719 14.402344 C 90.347656 14.558594 90.328125 14.710938 90.328125 14.914062 C 90.328125 14.957031 90.292969 15.003906 90.242188 15.046875 C 90.144531 14.703125 90.023438 14.269531 89.871094 13.703125 C 89.972656 13.761719 90.085938 13.777344 90.085938 13.777344 Z M 86.101562 35.269531 C 86.101562 35.269531 85.804688 35.308594 85.898438 34.839844 C 85.988281 34.375 86.082031 33.90625 86.082031 33.90625 C 86.082031 33.90625 86.304688 35.101562 86.101562 35.269531 Z M 92.132812 34.378906 C 92.09375 34.570312 91.945312 34.832031 91.945312 35.226562 C 91.945312 35.625 91.757812 35.472656 91.738281 35.886719 C 91.71875 36.300781 91.515625 37.09375 91.515625 37.1875 C 91.515625 37.28125 91.402344 37.585938 91.382812 37.226562 C 91.363281 36.867188 91.160156 36.300781 91.160156 36.171875 C 91.160156 36.039062 91.160156 35.980469 91.007812 35.546875 C 90.859375 35.113281 90.503906 34.585938 90.617188 33.851562 C 90.726562 33.117188 90.671875 32.457031 90.652344 31.0625 C 90.632812 29.667969 90.878906 29.253906 90.878906 28.820312 C 90.878906 28.386719 90.933594 27.050781 90.933594 27.050781 L 91.664062 27.03125 C 91.664062 27.03125 91.570312 28.519531 91.792969 29.066406 C 92.019531 29.613281 91.945312 29.933594 91.945312 30.234375 C 91.945312 30.535156 91.90625 31.96875 91.925781 32.421875 C 91.945312 32.871094 92.167969 34.191406 92.132812 34.378906 Z M 92.835938 20.238281 C 92.859375 19.988281 93.105469 19.761719 93.105469 19.265625 C 93.105469 18.765625 93.105469 17.769531 93.421875 17.746094 C 93.421875 17.746094 93.496094 17.816406 93.613281 17.929688 C 93.605469 17.949219 93.59375 17.96875 93.585938 17.988281 C 93.226562 18.832031 93.09375 19.515625 93.09375 19.515625 L 93.558594 19.664062 C 93.558594 19.664062 93.613281 20.679688 93.613281 21.136719 C 93.613281 21.332031 93.582031 21.601562 93.546875 21.914062 C 93.1875 21.789062 92.816406 20.46875 92.835938 20.238281 Z M 94.160156 30.199219 C 94.050781 30.898438 93.492188 32.839844 93.308594 33.308594 C 93.121094 33.777344 93.148438 34.484375 93.175781 34.578125 C 93.203125 34.671875 93.121094 34.726562 93.121094 34.726562 C 93.121094 34.726562 93.027344 34.941406 93.015625 35.019531 C 93 35.101562 92.960938 35.582031 92.976562 35.824219 C 92.988281 36.066406 93.09375 36.199219 93.027344 36.265625 C 92.996094 36.300781 92.945312 36.375 92.90625 36.515625 C 92.921875 36.289062 92.921875 36.066406 92.886719 35.882812 C 92.796875 35.414062 92.863281 34.726562 92.863281 34.726562 C 92.863281 34.726562 92.996094 33.105469 93.328125 32.394531 C 93.660156 31.683594 93.351562 29.929688 93.285156 29.683594 C 93.21875 29.441406 93.414062 27.085938 93.414062 27.085938 L 93.5 27.042969 C 93.53125 27.097656 93.566406 27.152344 93.601562 27.203125 C 93.851562 27.5625 94.078125 27.390625 94.078125 27.390625 C 94.078125 27.390625 94.265625 29.503906 94.160156 30.199219 Z M 94.09375 25.179688 C 94.078125 24.308594 94.292969 23.238281 94.292969 23.238281 C 94.292969 23.238281 94.476562 25.3125 94.09375 25.179688 Z M 99.148438 20.15625 C 99.1875 20.5625 99.210938 21 99.222656 21.421875 C 99.070312 20.980469 98.960938 20.660156 99.148438 20.15625 Z M 98.941406 29.640625 C 98.914062 30.007812 98.882812 30.316406 98.875 30.386719 C 98.863281 30.457031 98.851562 30.496094 98.835938 30.519531 C 98.835938 30.503906 98.839844 30.488281 98.839844 30.46875 C 98.855469 30.339844 98.894531 30.019531 98.941406 29.640625 Z M 98.945312 36.773438 C 98.746094 36.558594 98.601562 36.292969 98.628906 36.238281 C 98.652344 36.183594 98.601562 35.503906 98.574219 35.101562 C 98.546875 34.699219 98.71875 33.910156 98.828125 33.425781 C 98.863281 33.269531 98.878906 33.03125 98.882812 32.761719 C 98.886719 32.800781 98.886719 32.832031 98.886719 32.859375 C 98.886719 33.199219 99.113281 35.320312 99.113281 35.507812 C 99.113281 35.699219 99.15625 36.347656 99.316406 36.753906 C 99.390625 36.941406 99.359375 37.042969 99.316406 37.136719 C 99.171875 36.988281 99.015625 36.851562 98.945312 36.773438 Z M 98.945312 36.773438 " fill-opacity="1" fill-rule="nonzero"/></g><g clip-path="url(#e574e7abee)"><path fill="#f7b43d" d="M 9.125 10.914062 C 9.125 10.445312 9.507812 10.066406 9.976562 10.066406 L 24.714844 10.066406 C 25.183594 10.066406 25.5625 10.445312 25.5625 10.914062 C 25.5625 11.382812 25.183594 11.765625 24.714844 11.765625 L 10.828125 11.765625 L 10.828125 32.738281 L 31.800781 32.738281 L 31.800781 11.765625 L 29.25 11.765625 C 28.777344 11.765625 28.398438 11.382812 28.398438 10.914062 C 28.398438 10.445312 28.777344 10.066406 29.25 10.066406 L 32.648438 10.066406 C 33.117188 10.066406 33.5 10.445312 33.5 10.914062 L 33.5 33.585938 C 33.5 34.058594 33.117188 34.4375 32.648438 34.4375 L 9.976562 34.4375 C 9.507812 34.4375 9.125 34.058594 9.125 33.585938 Z M 9.125 10.914062 " fill-opacity="1" fill-rule="evenodd"/></g><path fill="#f7b43d" d="M 13.34375 15.980469 C 13.675781 15.648438 14.214844 15.648438 14.546875 15.980469 L 20.214844 21.648438 C 20.546875 21.980469 20.546875 22.519531 20.214844 22.851562 L 14.546875 28.519531 C 14.214844 28.851562 13.675781 28.851562 13.34375 28.519531 C 13.011719 28.1875 13.011719 27.648438 13.34375 27.316406 L 18.410156 22.25 L 13.34375 17.183594 C 13.011719 16.851562 13.011719 16.3125 13.34375 15.980469 Z M 13.34375 15.980469 " fill-opacity="1" fill-rule="evenodd"/><path fill="#f7b43d" d="M 19.894531 27.917969 C 19.894531 27.449219 20.277344 27.070312 20.746094 27.070312 L 28.683594 27.070312 C 29.152344 27.070312 29.53125 27.449219 29.53125 27.917969 C 29.53125 28.386719 29.152344 28.769531 28.683594 28.769531 L 20.746094 28.769531 C 20.277344 28.769531 19.894531 28.386719 19.894531 27.917969 Z M 19.894531 27.917969 " fill-opacity="1" fill-rule="evenodd"/><g fill="#ffffff" fill-opacity="1"><g transform="translate(34.332136, 23.731857)"><g><path d="M 4.015625 -12.0625 L 4.015625 -7.0625 L 8.71875 -7.0625 L 8.71875 -12.0625 L 11.203125 -12.0625 L 11.203125 0 L 8.71875 0 L 8.71875 -5.15625 L 4.015625 -5.15625 L 4.015625 0 L 1.484375 0 L 1.484375 -12.0625 Z M 4.015625 -12.0625 "/></g></g></g><g fill="#ffffff" fill-opacity="1"><g transform="translate(47.024517, 23.731857)"><g><path d="M 9.125 -9.03125 L 9.125 0.125 L 7.5 0.125 C 7.289062 0.125 7.132812 0.09375 7.03125 0.03125 C 6.9375 -0.03125 6.890625 -0.148438 6.890625 -0.328125 L 6.890625 -0.75 C 6.546875 -0.5 6.128906 -0.289062 5.640625 -0.125 C 5.148438 0.0390625 4.6875 0.125 4.25 0.125 C 3.425781 0.125 2.796875 -0.03125 2.359375 -0.34375 C 1.929688 -0.65625 1.644531 -1.082031 1.5 -1.625 C 1.351562 -2.175781 1.28125 -2.882812 1.28125 -3.75 L 1.28125 -9.03125 L 3.75 -9.03125 L 3.75 -3.78125 C 3.75 -3.21875 3.796875 -2.789062 3.890625 -2.5 C 3.992188 -2.207031 4.140625 -2.007812 4.328125 -1.90625 C 4.523438 -1.8125 4.796875 -1.765625 5.140625 -1.765625 C 5.410156 -1.765625 5.691406 -1.816406 5.984375 -1.921875 C 6.273438 -2.035156 6.5 -2.15625 6.65625 -2.28125 L 6.65625 -9.03125 Z M 9.125 -9.03125 "/></g></g></g><g fill="#ffffff" fill-opacity="1"><g transform="translate(57.536759, 23.731857)"><g><path d="M 6.265625 -9.15625 C 6.929688 -9.15625 7.535156 -8.992188 8.078125 -8.671875 C 8.617188 -8.359375 9.050781 -7.878906 9.375 -7.234375 C 9.707031 -6.585938 9.875 -5.789062 9.875 -4.84375 C 9.875 -3.863281 9.675781 -2.988281 9.28125 -2.21875 C 8.882812 -1.457031 8.328125 -0.863281 7.609375 -0.4375 C 6.890625 -0.0195312 6.066406 0.1875 5.140625 0.1875 C 4.640625 0.1875 4.113281 0.144531 3.5625 0.0625 C 3.007812 -0.0195312 2.519531 -0.113281 2.09375 -0.21875 C 1.675781 -0.332031 1.421875 -0.425781 1.328125 -0.5 L 1.328125 -13.171875 L 3.8125 -13.171875 L 3.8125 -9.703125 L 3.734375 -8.21875 C 4.023438 -8.476562 4.367188 -8.695312 4.765625 -8.875 C 5.171875 -9.0625 5.671875 -9.15625 6.265625 -9.15625 Z M 7.28125 -4.71875 C 7.28125 -5.675781 7.128906 -6.347656 6.828125 -6.734375 C 6.523438 -7.117188 6.085938 -7.3125 5.515625 -7.3125 C 5.179688 -7.3125 4.863281 -7.257812 4.5625 -7.15625 C 4.257812 -7.050781 4.007812 -6.914062 3.8125 -6.75 L 3.8125 -1.84375 C 4 -1.632812 4.460938 -1.53125 5.203125 -1.53125 C 5.597656 -1.53125 5.953125 -1.65625 6.265625 -1.90625 C 6.578125 -2.15625 6.820312 -2.519531 7 -3 C 7.1875 -3.476562 7.28125 -4.050781 7.28125 -4.71875 Z M 7.28125 -4.71875 "/></g></g></g><g fill="#ffffff" fill-opacity="1"><g transform="translate(68.159989, 23.731857)"><g><path d="M 8.671875 -5.625 C 8.671875 -4.863281 8.640625 -4.296875 8.578125 -3.921875 L 3.234375 -3.921875 C 3.285156 -3.179688 3.519531 -2.628906 3.9375 -2.265625 C 4.351562 -1.898438 4.921875 -1.71875 5.640625 -1.71875 C 5.984375 -1.71875 6.398438 -1.757812 6.890625 -1.84375 C 7.378906 -1.9375 7.738281 -2.050781 7.96875 -2.1875 L 8.375 -0.78125 C 8.0625 -0.519531 7.59375 -0.300781 6.96875 -0.125 C 6.34375 0.0390625 5.691406 0.125 5.015625 0.125 C 4.109375 0.125 3.332031 -0.0546875 2.6875 -0.421875 C 2.050781 -0.796875 1.566406 -1.332031 1.234375 -2.03125 C 0.910156 -2.726562 0.75 -3.566406 0.75 -4.546875 C 0.75 -5.429688 0.921875 -6.222656 1.265625 -6.921875 C 1.609375 -7.617188 2.109375 -8.164062 2.765625 -8.5625 C 3.421875 -8.957031 4.207031 -9.15625 5.125 -9.15625 C 5.78125 -9.15625 6.367188 -9.035156 6.890625 -8.796875 C 7.421875 -8.566406 7.84375 -8.1875 8.15625 -7.65625 C 8.476562 -7.125 8.648438 -6.445312 8.671875 -5.625 Z M 6.359375 -5.296875 C 6.367188 -5.378906 6.375 -5.492188 6.375 -5.640625 C 6.375 -6.222656 6.265625 -6.660156 6.046875 -6.953125 C 5.828125 -7.253906 5.476562 -7.40625 5 -7.40625 C 4.507812 -7.40625 4.117188 -7.242188 3.828125 -6.921875 C 3.546875 -6.597656 3.363281 -6.054688 3.28125 -5.296875 Z M 6.359375 -5.296875 "/></g></g></g><g fill="#ffffff" fill-opacity="1"><g transform="translate(77.594051, 23.731857)"><g><path d="M 6.125 -9.1875 C 6.46875 -9.1875 6.703125 -9.148438 6.828125 -9.078125 L 6.828125 -6.6875 C 6.703125 -6.757812 6.5625 -6.8125 6.40625 -6.84375 C 6.25 -6.882812 6.023438 -6.90625 5.734375 -6.90625 C 4.972656 -6.90625 4.300781 -6.632812 3.71875 -6.09375 L 3.71875 0 L 1.25 0 L 1.25 -9.03125 L 3.453125 -9.03125 L 3.5625 -7.796875 C 3.6875 -8.035156 3.878906 -8.257812 4.140625 -8.46875 C 4.410156 -8.675781 4.71875 -8.847656 5.0625 -8.984375 C 5.40625 -9.117188 5.757812 -9.1875 6.125 -9.1875 Z M 6.125 -9.1875 "/></g></g></g><g fill="#ffffff" fill-opacity="1"><g transform="translate(84.935179, 23.731857)"><g><path d="M 1.671875 -7.328125 L 0.59375 -7.328125 L 0.59375 -8.671875 C 0.9375 -8.765625 1.1875 -8.835938 1.34375 -8.890625 C 1.5 -8.953125 1.632812 -9.03125 1.75 -9.125 C 1.875 -9.226562 1.972656 -9.359375 2.046875 -9.515625 C 2.160156 -9.785156 2.359375 -10.3125 2.640625 -11.09375 L 4.140625 -11.09375 L 4.140625 -9.03125 L 6.59375 -9.03125 L 6.59375 -7.328125 L 4.140625 -7.328125 L 4.140625 -3.6875 C 4.140625 -3.09375 4.171875 -2.65625 4.234375 -2.375 C 4.304688 -2.101562 4.410156 -1.925781 4.546875 -1.84375 C 4.679688 -1.769531 4.890625 -1.734375 5.171875 -1.734375 C 5.398438 -1.734375 5.65625 -1.769531 5.9375 -1.84375 C 6.226562 -1.925781 6.441406 -2.015625 6.578125 -2.109375 L 6.875 -0.734375 C 6.632812 -0.503906 6.265625 -0.300781 5.765625 -0.125 C 5.273438 0.0390625 4.742188 0.125 4.171875 0.125 C 3.566406 0.125 3.082031 0.03125 2.71875 -0.15625 C 2.351562 -0.34375 2.085938 -0.640625 1.921875 -1.046875 C 1.753906 -1.460938 1.671875 -2.007812 1.671875 -2.6875 Z M 1.671875 -7.328125 "/></g></g></g><g fill="#ffffff" fill-opacity="1"><g transform="translate(92.173246, 23.731857)"><g/></g></g><g fill="#ffffff" fill-opacity="1"><g transform="translate(97.476933, 23.731857)"><g><path d="M 1.5625 -2.609375 C 1.945312 -2.398438 2.410156 -2.21875 2.953125 -2.0625 C 3.492188 -1.914062 4.066406 -1.84375 4.671875 -1.84375 C 5.316406 -1.84375 5.769531 -1.941406 6.03125 -2.140625 C 6.300781 -2.335938 6.4375 -2.648438 6.4375 -3.078125 C 6.4375 -3.359375 6.367188 -3.597656 6.234375 -3.796875 C 6.109375 -3.992188 5.882812 -4.191406 5.5625 -4.390625 C 5.25 -4.597656 4.757812 -4.863281 4.09375 -5.1875 C 3.207031 -5.625 2.488281 -6.132812 1.9375 -6.71875 C 1.382812 -7.3125 1.109375 -8.050781 1.109375 -8.9375 C 1.109375 -9.695312 1.289062 -10.316406 1.65625 -10.796875 C 2.03125 -11.285156 2.53125 -11.640625 3.15625 -11.859375 C 3.789062 -12.078125 4.507812 -12.1875 5.3125 -12.1875 C 6 -12.1875 6.625 -12.113281 7.1875 -11.96875 C 7.75 -11.820312 8.160156 -11.664062 8.421875 -11.5 L 8.015625 -9.53125 C 7.648438 -9.757812 7.253906 -9.945312 6.828125 -10.09375 C 6.410156 -10.238281 5.925781 -10.3125 5.375 -10.3125 C 4.738281 -10.3125 4.28125 -10.203125 4 -9.984375 C 3.71875 -9.765625 3.578125 -9.457031 3.578125 -9.0625 C 3.578125 -8.78125 3.644531 -8.539062 3.78125 -8.34375 C 3.925781 -8.144531 4.132812 -7.953125 4.40625 -7.765625 C 4.675781 -7.585938 5.09375 -7.351562 5.65625 -7.0625 C 6.414062 -6.65625 7.019531 -6.289062 7.46875 -5.96875 C 7.925781 -5.65625 8.289062 -5.273438 8.5625 -4.828125 C 8.832031 -4.378906 8.96875 -3.847656 8.96875 -3.234375 C 8.96875 -2.523438 8.796875 -1.914062 8.453125 -1.40625 C 8.109375 -0.90625 7.625 -0.523438 7 -0.265625 C 6.375 -0.00390625 5.648438 0.125 4.828125 0.125 C 4.335938 0.125 3.84375 0.0820312 3.34375 0 C 2.84375 -0.0703125 2.398438 -0.160156 2.015625 -0.265625 C 1.628906 -0.378906 1.359375 -0.488281 1.203125 -0.59375 Z M 1.5625 -2.609375 "/></g></g></g><g fill="#ffffff" fill-opacity="1"><g transform="translate(107.045768, 23.731857)"><g><path d="M 3.859375 -9.03125 L 3.859375 0 L 1.375 0 L 1.375 -9.03125 Z M 1.078125 -11.703125 C 1.078125 -11.960938 1.148438 -12.207031 1.296875 -12.4375 C 1.441406 -12.664062 1.632812 -12.847656 1.875 -12.984375 C 2.125 -13.117188 2.382812 -13.1875 2.65625 -13.1875 C 3.082031 -13.1875 3.425781 -13.054688 3.6875 -12.796875 C 3.945312 -12.546875 4.078125 -12.222656 4.078125 -11.828125 C 4.078125 -11.566406 4.003906 -11.320312 3.859375 -11.09375 C 3.710938 -10.863281 3.519531 -10.679688 3.28125 -10.546875 C 3.039062 -10.410156 2.785156 -10.34375 2.515625 -10.34375 C 2.242188 -10.34375 2 -10.398438 1.78125 -10.515625 C 1.5625 -10.628906 1.390625 -10.789062 1.265625 -11 C 1.140625 -11.207031 1.078125 -11.441406 1.078125 -11.703125 Z M 1.078125 -11.703125 "/></g></g></g><g fill="#ffffff" fill-opacity="1"><g transform="translate(112.278105, 23.731857)"><g><path d="M 8.671875 -5.625 C 8.671875 -4.863281 8.640625 -4.296875 8.578125 -3.921875 L 3.234375 -3.921875 C 3.285156 -3.179688 3.519531 -2.628906 3.9375 -2.265625 C 4.351562 -1.898438 4.921875 -1.71875 5.640625 -1.71875 C 5.984375 -1.71875 6.398438 -1.757812 6.890625 -1.84375 C 7.378906 -1.9375 7.738281 -2.050781 7.96875 -2.1875 L 8.375 -0.78125 C 8.0625 -0.519531 7.59375 -0.300781 6.96875 -0.125 C 6.34375 0.0390625 5.691406 0.125 5.015625 0.125 C 4.109375 0.125 3.332031 -0.0546875 2.6875 -0.421875 C 2.050781 -0.796875 1.566406 -1.332031 1.234375 -2.03125 C 0.910156 -2.726562 0.75 -3.566406 0.75 -4.546875 C 0.75 -5.429688 0.921875 -6.222656 1.265625 -6.921875 C 1.609375 -7.617188 2.109375 -8.164062 2.765625 -8.5625 C 3.421875 -8.957031 4.207031 -9.15625 5.125 -9.15625 C 5.78125 -9.15625 6.367188 -9.035156 6.890625 -8.796875 C 7.421875 -8.566406 7.84375 -8.1875 8.15625 -7.65625 C 8.476562 -7.125 8.648438 -6.445312 8.671875 -5.625 Z M 6.359375 -5.296875 C 6.367188 -5.378906 6.375 -5.492188 6.375 -5.640625 C 6.375 -6.222656 6.265625 -6.660156 6.046875 -6.953125 C 5.828125 -7.253906 5.476562 -7.40625 5 -7.40625 C 4.507812 -7.40625 4.117188 -7.242188 3.828125 -6.921875 C 3.546875 -6.597656 3.363281 -6.054688 3.28125 -5.296875 Z M 6.359375 -5.296875 "/></g></g></g><g fill="#ffffff" fill-opacity="1"><g transform="translate(121.712168, 23.731857)"><g><path d="M 5.265625 -9.15625 C 5.796875 -9.15625 6.273438 -9.109375 6.703125 -9.015625 C 7.140625 -8.929688 7.441406 -8.828125 7.609375 -8.703125 L 7.296875 -6.796875 C 7.066406 -6.910156 6.8125 -6.992188 6.53125 -7.046875 C 6.257812 -7.109375 5.921875 -7.140625 5.515625 -7.140625 C 5.140625 -7.140625 4.78125 -7.054688 4.4375 -6.890625 C 4.09375 -6.734375 3.804688 -6.472656 3.578125 -6.109375 C 3.347656 -5.753906 3.222656 -5.289062 3.203125 -4.71875 C 3.191406 -4.082031 3.273438 -3.550781 3.453125 -3.125 C 3.640625 -2.695312 3.90625 -2.378906 4.25 -2.171875 C 4.59375 -1.960938 4.984375 -1.859375 5.421875 -1.859375 C 5.816406 -1.859375 6.195312 -1.894531 6.5625 -1.96875 C 6.925781 -2.039062 7.203125 -2.128906 7.390625 -2.234375 L 7.75 -0.765625 C 7.46875 -0.492188 7.070312 -0.273438 6.5625 -0.109375 C 6.0625 0.046875 5.53125 0.125 4.96875 0.125 C 4.0625 0.125 3.289062 -0.0664062 2.65625 -0.453125 C 2.019531 -0.835938 1.539062 -1.375 1.21875 -2.0625 C 0.90625 -2.75 0.75 -3.53125 0.75 -4.40625 C 0.75 -5.3125 0.914062 -6.125 1.25 -6.84375 C 1.582031 -7.5625 2.085938 -8.125 2.765625 -8.53125 C 3.441406 -8.945312 4.273438 -9.15625 5.265625 -9.15625 Z M 5.265625 -9.15625 "/></g></g></g><g fill="#ffffff" fill-opacity="1"><g transform="translate(130.020485, 23.731857)"><g><path d="M 4.53125 -6.65625 L 5 -7.3125 L 1.125 -7.3125 L 1.140625 -9.03125 L 8 -9.03125 L 8.28125 -8.28125 L 4.453125 -2.375 L 3.96875 -1.71875 L 8.15625 -1.71875 L 8.15625 0 L 0.9375 0 L 0.609375 -0.65625 Z M 4.53125 -6.65625 "/></g></g></g><g fill="#ffffff" fill-opacity="1"><g transform="translate(138.80447, 23.731857)"><g><path d="M 4.734375 -3.765625 L 3.765625 -2.71875 L 3.8125 -1.6875 L 3.8125 0 L 1.328125 0 L 1.328125 -13.171875 L 3.8125 -13.171875 L 3.8125 -7.75 L 3.71875 -5.46875 L 6.78125 -9.03125 L 9.578125 -9.03125 L 6.34375 -5.53125 L 9.890625 0 L 7.078125 0 Z M 4.734375 -3.765625 "/></g></g></g><g fill="#ffffff" fill-opacity="1"><g transform="translate(148.619066, 23.731857)"><g><path d="M 4.8125 -9.21875 C 5.6875 -9.21875 6.382812 -9.117188 6.90625 -8.921875 C 7.4375 -8.722656 7.832031 -8.382812 8.09375 -7.90625 C 8.351562 -7.4375 8.484375 -6.769531 8.484375 -5.90625 L 8.484375 0.125 L 7.046875 0.125 C 6.804688 0.125 6.625 0.109375 6.5 0.078125 C 6.375 0.046875 6.273438 -0.0234375 6.203125 -0.140625 C 6.140625 -0.253906 6.109375 -0.441406 6.109375 -0.703125 L 6.109375 -0.765625 C 5.835938 -0.503906 5.5 -0.289062 5.09375 -0.125 C 4.695312 0.0390625 4.25 0.125 3.75 0.125 C 3.175781 0.125 2.664062 0 2.21875 -0.25 C 1.769531 -0.5 1.421875 -0.847656 1.171875 -1.296875 C 0.929688 -1.742188 0.8125 -2.25 0.8125 -2.8125 C 0.8125 -3.34375 0.945312 -3.796875 1.21875 -4.171875 C 1.488281 -4.546875 1.878906 -4.847656 2.390625 -5.078125 C 3.171875 -5.421875 4.378906 -5.59375 6.015625 -5.59375 L 6.015625 -6.171875 C 6.015625 -6.503906 5.96875 -6.75 5.875 -6.90625 C 5.789062 -7.070312 5.625 -7.179688 5.375 -7.234375 C 5.132812 -7.296875 4.75 -7.328125 4.21875 -7.328125 C 3.96875 -7.328125 3.582031 -7.257812 3.0625 -7.125 C 2.539062 -7 2.097656 -6.851562 1.734375 -6.6875 L 1.1875 -8.265625 C 1.394531 -8.390625 1.695312 -8.523438 2.09375 -8.671875 C 2.5 -8.828125 2.941406 -8.957031 3.421875 -9.0625 C 3.898438 -9.164062 4.363281 -9.21875 4.8125 -9.21875 Z M 4.609375 -1.546875 C 4.867188 -1.546875 5.144531 -1.597656 5.4375 -1.703125 C 5.726562 -1.816406 5.921875 -1.929688 6.015625 -2.046875 L 6.015625 -4.203125 C 5.710938 -4.203125 5.367188 -4.164062 4.984375 -4.09375 C 4.609375 -4.03125 4.328125 -3.957031 4.140625 -3.875 C 3.910156 -3.78125 3.722656 -3.65625 3.578125 -3.5 C 3.429688 -3.351562 3.359375 -3.128906 3.359375 -2.828125 C 3.359375 -2.410156 3.472656 -2.09375 3.703125 -1.875 C 3.929688 -1.65625 4.234375 -1.546875 4.609375 -1.546875 Z M 4.609375 -1.546875 "/></g></g></g><g fill="#f7b43d" fill-opacity="1"><g transform="translate(34.332136, 32.960874)"><g><path d="M 2.703125 -7.34375 L 2.703125 -1.390625 L 5.125 -1.390625 L 5.125 0 L 0.828125 0 L 0.828125 -7.34375 Z M 2.703125 -7.34375 "/></g></g></g><g fill="#f7b43d" fill-opacity="1"><g transform="translate(39.73702, 32.960874)"><g><path d="M 5.484375 -3.34375 C 5.484375 -2.9375 5.460938 -2.597656 5.421875 -2.328125 L 2.1875 -2.328125 C 2.226562 -1.929688 2.363281 -1.640625 2.59375 -1.453125 C 2.832031 -1.273438 3.15625 -1.1875 3.5625 -1.1875 C 3.820312 -1.1875 4.097656 -1.210938 4.390625 -1.265625 C 4.691406 -1.328125 4.910156 -1.394531 5.046875 -1.46875 L 5.3125 -0.515625 C 5.113281 -0.359375 4.816406 -0.21875 4.421875 -0.09375 C 4.035156 0.0195312 3.613281 0.078125 3.15625 0.078125 C 2.5625 0.078125 2.0625 -0.0351562 1.65625 -0.265625 C 1.25 -0.492188 0.9375 -0.816406 0.71875 -1.234375 C 0.507812 -1.660156 0.40625 -2.171875 0.40625 -2.765625 C 0.40625 -3.304688 0.515625 -3.785156 0.734375 -4.203125 C 0.953125 -4.628906 1.269531 -4.960938 1.6875 -5.203125 C 2.101562 -5.453125 2.597656 -5.578125 3.171875 -5.578125 C 3.847656 -5.578125 4.398438 -5.40625 4.828125 -5.0625 C 5.253906 -4.726562 5.472656 -4.15625 5.484375 -3.34375 Z M 3.828125 -3.21875 C 3.828125 -3.269531 3.828125 -3.335938 3.828125 -3.421875 C 3.828125 -3.765625 3.769531 -4.015625 3.65625 -4.171875 C 3.550781 -4.335938 3.375 -4.421875 3.125 -4.421875 C 2.863281 -4.421875 2.65625 -4.328125 2.5 -4.140625 C 2.351562 -3.960938 2.253906 -3.65625 2.203125 -3.21875 Z M 3.828125 -3.21875 "/></g></g></g><g fill="#f7b43d" fill-opacity="1"><g transform="translate(45.618806, 32.960874)"><g><path d="M 0.90625 -4.328125 L 0.28125 -4.328125 L 0.28125 -5.265625 C 0.5625 -5.347656 0.769531 -5.425781 0.90625 -5.5 C 1.050781 -5.570312 1.15625 -5.679688 1.21875 -5.828125 C 1.257812 -5.910156 1.34375 -6.101562 1.46875 -6.40625 L 1.609375 -6.75 L 2.703125 -6.75 L 2.703125 -5.5 L 4.125 -5.5 L 4.125 -4.328125 L 2.703125 -4.328125 L 2.703125 -2.375 C 2.703125 -2.03125 2.71875 -1.78125 2.75 -1.625 C 2.789062 -1.46875 2.851562 -1.367188 2.9375 -1.328125 C 3.019531 -1.285156 3.148438 -1.265625 3.328125 -1.265625 C 3.453125 -1.265625 3.597656 -1.285156 3.765625 -1.328125 C 3.929688 -1.367188 4.054688 -1.414062 4.140625 -1.46875 L 4.34375 -0.484375 C 4.25 -0.398438 4.109375 -0.3125 3.921875 -0.21875 C 3.734375 -0.132812 3.515625 -0.0625 3.265625 0 C 3.015625 0.0507812 2.765625 0.078125 2.515625 0.078125 C 2.128906 0.078125 1.816406 0.015625 1.578125 -0.109375 C 1.335938 -0.242188 1.164062 -0.441406 1.0625 -0.703125 C 0.957031 -0.960938 0.90625 -1.300781 0.90625 -1.71875 Z M 0.90625 -4.328125 "/></g></g></g><g fill="#f7b43d" fill-opacity="1"><g transform="translate(50.079522, 32.960874)"><g><path d="M 2.5625 -8.21875 L 2.375 -4.578125 L 1.15625 -4.578125 L 0.953125 -8.21875 Z M 2.5625 -8.21875 "/></g></g></g><g fill="#f7b43d" fill-opacity="1"><g transform="translate(53.596069, 32.960874)"><g><path d="M 0.6875 -1.59375 C 0.75 -1.539062 0.867188 -1.472656 1.046875 -1.390625 C 1.222656 -1.316406 1.425781 -1.25 1.65625 -1.1875 C 1.882812 -1.132812 2.113281 -1.109375 2.34375 -1.109375 C 2.613281 -1.109375 2.804688 -1.140625 2.921875 -1.203125 C 3.046875 -1.273438 3.109375 -1.378906 3.109375 -1.515625 C 3.109375 -1.609375 3.0625 -1.691406 2.96875 -1.765625 C 2.882812 -1.847656 2.757812 -1.921875 2.59375 -1.984375 C 2.425781 -2.054688 2.203125 -2.140625 1.921875 -2.234375 C 1.421875 -2.398438 1.054688 -2.625 0.828125 -2.90625 C 0.609375 -3.1875 0.5 -3.539062 0.5 -3.96875 C 0.5 -4.3125 0.597656 -4.601562 0.796875 -4.84375 C 1.003906 -5.09375 1.28125 -5.273438 1.625 -5.390625 C 1.96875 -5.515625 2.351562 -5.578125 2.78125 -5.578125 C 3.1875 -5.578125 3.546875 -5.539062 3.859375 -5.46875 C 4.171875 -5.394531 4.40625 -5.316406 4.5625 -5.234375 L 4.390625 -3.984375 C 4.328125 -4.046875 4.222656 -4.109375 4.078125 -4.171875 C 3.929688 -4.234375 3.769531 -4.285156 3.59375 -4.328125 C 3.414062 -4.378906 3.242188 -4.40625 3.078125 -4.40625 C 2.773438 -4.40625 2.554688 -4.375 2.421875 -4.3125 C 2.296875 -4.25 2.234375 -4.15625 2.234375 -4.03125 C 2.234375 -3.925781 2.265625 -3.835938 2.328125 -3.765625 C 2.398438 -3.703125 2.515625 -3.632812 2.671875 -3.5625 C 2.828125 -3.5 3.054688 -3.421875 3.359375 -3.328125 C 3.878906 -3.160156 4.257812 -2.945312 4.5 -2.6875 C 4.75 -2.425781 4.875 -2.085938 4.875 -1.671875 C 4.875 -1.296875 4.78125 -0.972656 4.59375 -0.703125 C 4.40625 -0.441406 4.132812 -0.242188 3.78125 -0.109375 C 3.4375 0.015625 3.03125 0.078125 2.5625 0.078125 C 2.269531 0.078125 1.988281 0.0507812 1.71875 0 C 1.445312 -0.0390625 1.207031 -0.09375 1 -0.15625 C 0.789062 -0.226562 0.628906 -0.296875 0.515625 -0.359375 Z M 0.6875 -1.59375 "/></g></g></g><g fill="#f7b43d" fill-opacity="1"><g transform="translate(58.817901, 32.960874)"><g/></g></g><g fill="#f7b43d" fill-opacity="1"><g transform="translate(62.083954, 32.960874)"><g><path d="M 3.203125 -5.578125 C 3.554688 -5.578125 3.875 -5.546875 4.15625 -5.484375 C 4.4375 -5.429688 4.625 -5.367188 4.71875 -5.296875 L 4.515625 -3.953125 C 4.253906 -4.109375 3.894531 -4.1875 3.4375 -4.1875 C 3.226562 -4.1875 3.03125 -4.140625 2.84375 -4.046875 C 2.65625 -3.953125 2.503906 -3.800781 2.390625 -3.59375 C 2.273438 -3.382812 2.21875 -3.109375 2.21875 -2.765625 C 2.21875 -2.242188 2.328125 -1.867188 2.546875 -1.640625 C 2.773438 -1.410156 3.078125 -1.296875 3.453125 -1.296875 C 3.679688 -1.296875 3.894531 -1.3125 4.09375 -1.34375 C 4.289062 -1.382812 4.453125 -1.429688 4.578125 -1.484375 L 4.796875 -0.484375 C 4.640625 -0.316406 4.398438 -0.179688 4.078125 -0.078125 C 3.753906 0.0234375 3.421875 0.078125 3.078125 0.078125 C 2.484375 0.078125 1.988281 -0.0351562 1.59375 -0.265625 C 1.195312 -0.503906 0.898438 -0.832031 0.703125 -1.25 C 0.503906 -1.664062 0.40625 -2.148438 0.40625 -2.703125 C 0.40625 -3.253906 0.503906 -3.742188 0.703125 -4.171875 C 0.910156 -4.609375 1.222656 -4.953125 1.640625 -5.203125 C 2.054688 -5.453125 2.578125 -5.578125 3.203125 -5.578125 Z M 3.203125 -5.578125 "/></g></g></g><g fill="#f7b43d" fill-opacity="1"><g transform="translate(67.132366, 32.960874)"><g><path d="M 0.421875 -2.796875 C 0.421875 -3.378906 0.539062 -3.878906 0.78125 -4.296875 C 1.019531 -4.710938 1.351562 -5.03125 1.78125 -5.25 C 2.207031 -5.46875 2.703125 -5.578125 3.265625 -5.578125 C 3.898438 -5.578125 4.421875 -5.445312 4.828125 -5.1875 C 5.234375 -4.9375 5.53125 -4.597656 5.71875 -4.171875 C 5.90625 -3.742188 6 -3.257812 6 -2.71875 C 6 -2.125 5.878906 -1.613281 5.640625 -1.1875 C 5.398438 -0.769531 5.066406 -0.453125 4.640625 -0.234375 C 4.210938 -0.0234375 3.71875 0.078125 3.15625 0.078125 C 2.507812 0.078125 1.984375 -0.046875 1.578125 -0.296875 C 1.171875 -0.554688 0.875 -0.898438 0.6875 -1.328125 C 0.507812 -1.765625 0.421875 -2.253906 0.421875 -2.796875 Z M 4.140625 -2.71875 C 4.140625 -3.207031 4.066406 -3.597656 3.921875 -3.890625 C 3.785156 -4.179688 3.550781 -4.328125 3.21875 -4.328125 C 2.875 -4.328125 2.628906 -4.203125 2.484375 -3.953125 C 2.335938 -3.710938 2.265625 -3.332031 2.265625 -2.8125 C 2.265625 -2.3125 2.335938 -1.910156 2.484375 -1.609375 C 2.628906 -1.304688 2.867188 -1.15625 3.203125 -1.15625 C 3.546875 -1.15625 3.785156 -1.28125 3.921875 -1.53125 C 4.066406 -1.78125 4.140625 -2.175781 4.140625 -2.71875 Z M 4.140625 -2.71875 "/></g></g></g><g fill="#f7b43d" fill-opacity="1"><g transform="translate(73.539226, 32.960874)"><g><path d="M 5.890625 -8.015625 L 5.890625 0.078125 L 4.515625 0.078125 C 4.429688 0.078125 4.363281 0.0507812 4.3125 0 C 4.269531 -0.0390625 4.25 -0.101562 4.25 -0.1875 L 4.25 -0.578125 C 3.820312 -0.140625 3.269531 0.078125 2.59375 0.078125 C 2.1875 0.078125 1.816406 -0.0195312 1.484375 -0.21875 C 1.160156 -0.414062 0.898438 -0.710938 0.703125 -1.109375 C 0.503906 -1.503906 0.40625 -1.988281 0.40625 -2.5625 C 0.40625 -3.175781 0.519531 -3.707031 0.75 -4.15625 C 0.988281 -4.613281 1.316406 -4.960938 1.734375 -5.203125 C 2.160156 -5.453125 2.65625 -5.578125 3.21875 -5.578125 C 3.5625 -5.578125 3.863281 -5.53125 4.125 -5.4375 L 4.109375 -6.03125 L 4.109375 -8.015625 Z M 2.28125 -2.625 C 2.28125 -2.144531 2.359375 -1.796875 2.515625 -1.578125 C 2.671875 -1.367188 2.898438 -1.265625 3.203125 -1.265625 C 3.367188 -1.265625 3.535156 -1.285156 3.703125 -1.328125 C 3.867188 -1.378906 4.003906 -1.441406 4.109375 -1.515625 L 4.109375 -4.1875 C 3.960938 -4.289062 3.707031 -4.34375 3.34375 -4.34375 C 3.132812 -4.34375 2.945312 -4.273438 2.78125 -4.140625 C 2.625 -4.015625 2.5 -3.820312 2.40625 -3.5625 C 2.320312 -3.3125 2.28125 -3 2.28125 -2.625 Z M 2.28125 -2.625 "/></g></g></g><g fill="#f7b43d" fill-opacity="1"><g transform="translate(80.191762, 32.960874)"><g><path d="M 5.484375 -3.34375 C 5.484375 -2.9375 5.460938 -2.597656 5.421875 -2.328125 L 2.1875 -2.328125 C 2.226562 -1.929688 2.363281 -1.640625 2.59375 -1.453125 C 2.832031 -1.273438 3.15625 -1.1875 3.5625 -1.1875 C 3.820312 -1.1875 4.097656 -1.210938 4.390625 -1.265625 C 4.691406 -1.328125 4.910156 -1.394531 5.046875 -1.46875 L 5.3125 -0.515625 C 5.113281 -0.359375 4.816406 -0.21875 4.421875 -0.09375 C 4.035156 0.0195312 3.613281 0.078125 3.15625 0.078125 C 2.5625 0.078125 2.0625 -0.0351562 1.65625 -0.265625 C 1.25 -0.492188 0.9375 -0.816406 0.71875 -1.234375 C 0.507812 -1.660156 0.40625 -2.171875 0.40625 -2.765625 C 0.40625 -3.304688 0.515625 -3.785156 0.734375 -4.203125 C 0.953125 -4.628906 1.269531 -4.960938 1.6875 -5.203125 C 2.101562 -5.453125 2.597656 -5.578125 3.171875 -5.578125 C 3.847656 -5.578125 4.398438 -5.40625 4.828125 -5.0625 C 5.253906 -4.726562 5.472656 -4.15625 5.484375 -3.34375 Z M 3.828125 -3.21875 C 3.828125 -3.269531 3.828125 -3.335938 3.828125 -3.421875 C 3.828125 -3.765625 3.769531 -4.015625 3.65625 -4.171875 C 3.550781 -4.335938 3.375 -4.421875 3.125 -4.421875 C 2.863281 -4.421875 2.65625 -4.328125 2.5 -4.140625 C 2.351562 -3.960938 2.253906 -3.65625 2.203125 -3.21875 Z M 3.828125 -3.21875 "/></g></g></g><g fill="#f7b43d" fill-opacity="1"><g transform="translate(86.073548, 32.960874)"><g/></g></g><g fill="#f7b43d" fill-opacity="1"><g transform="translate(89.339602, 32.960874)"><g><path d="M 0.90625 -4.328125 L 0.28125 -4.328125 L 0.28125 -5.265625 C 0.5625 -5.347656 0.769531 -5.425781 0.90625 -5.5 C 1.050781 -5.570312 1.15625 -5.679688 1.21875 -5.828125 C 1.257812 -5.910156 1.34375 -6.101562 1.46875 -6.40625 L 1.609375 -6.75 L 2.703125 -6.75 L 2.703125 -5.5 L 4.125 -5.5 L 4.125 -4.328125 L 2.703125 -4.328125 L 2.703125 -2.375 C 2.703125 -2.03125 2.71875 -1.78125 2.75 -1.625 C 2.789062 -1.46875 2.851562 -1.367188 2.9375 -1.328125 C 3.019531 -1.285156 3.148438 -1.265625 3.328125 -1.265625 C 3.453125 -1.265625 3.597656 -1.285156 3.765625 -1.328125 C 3.929688 -1.367188 4.054688 -1.414062 4.140625 -1.46875 L 4.34375 -0.484375 C 4.25 -0.398438 4.109375 -0.3125 3.921875 -0.21875 C 3.734375 -0.132812 3.515625 -0.0625 3.265625 0 C 3.015625 0.0507812 2.765625 0.078125 2.515625 0.078125 C 2.128906 0.078125 1.816406 0.015625 1.578125 -0.109375 C 1.335938 -0.242188 1.164062 -0.441406 1.0625 -0.703125 C 0.957031 -0.960938 0.90625 -1.300781 0.90625 -1.71875 Z M 0.90625 -4.328125 "/></g></g></g><g fill="#f7b43d" fill-opacity="1"><g transform="translate(93.800317, 32.960874)"><g><path d="M 0.421875 -2.796875 C 0.421875 -3.378906 0.539062 -3.878906 0.78125 -4.296875 C 1.019531 -4.710938 1.351562 -5.03125 1.78125 -5.25 C 2.207031 -5.46875 2.703125 -5.578125 3.265625 -5.578125 C 3.898438 -5.578125 4.421875 -5.445312 4.828125 -5.1875 C 5.234375 -4.9375 5.53125 -4.597656 5.71875 -4.171875 C 5.90625 -3.742188 6 -3.257812 6 -2.71875 C 6 -2.125 5.878906 -1.613281 5.640625 -1.1875 C 5.398438 -0.769531 5.066406 -0.453125 4.640625 -0.234375 C 4.210938 -0.0234375 3.71875 0.078125 3.15625 0.078125 C 2.507812 0.078125 1.984375 -0.046875 1.578125 -0.296875 C 1.171875 -0.554688 0.875 -0.898438 0.6875 -1.328125 C 0.507812 -1.765625 0.421875 -2.253906 0.421875 -2.796875 Z M 4.140625 -2.71875 C 4.140625 -3.207031 4.066406 -3.597656 3.921875 -3.890625 C 3.785156 -4.179688 3.550781 -4.328125 3.21875 -4.328125 C 2.875 -4.328125 2.628906 -4.203125 2.484375 -3.953125 C 2.335938 -3.710938 2.265625 -3.332031 2.265625 -2.8125 C 2.265625 -2.3125 2.335938 -1.910156 2.484375 -1.609375 C 2.628906 -1.304688 2.867188 -1.15625 3.203125 -1.15625 C 3.546875 -1.15625 3.785156 -1.28125 3.921875 -1.53125 C 4.066406 -1.78125 4.140625 -2.175781 4.140625 -2.71875 Z M 4.140625 -2.71875 "/></g></g></g><g fill="#f7b43d" fill-opacity="1"><g transform="translate(100.207177, 32.960874)"><g><path d="M 6.453125 -4.265625 L 5.5625 -4.265625 C 5.601562 -4.117188 5.625 -3.96875 5.625 -3.8125 C 5.625 -3.25 5.410156 -2.8125 4.984375 -2.5 C 4.554688 -2.195312 3.90625 -2.046875 3.03125 -2.046875 C 2.84375 -2.046875 2.660156 -2.050781 2.484375 -2.0625 C 2.429688 -2.007812 2.390625 -1.945312 2.359375 -1.875 C 2.328125 -1.8125 2.3125 -1.742188 2.3125 -1.671875 C 2.3125 -1.546875 2.363281 -1.457031 2.46875 -1.40625 C 2.570312 -1.351562 2.753906 -1.328125 3.015625 -1.328125 L 4.109375 -1.328125 C 4.898438 -1.328125 5.457031 -1.171875 5.78125 -0.859375 C 6.113281 -0.554688 6.28125 -0.15625 6.28125 0.34375 C 6.28125 0.800781 6.132812 1.191406 5.84375 1.515625 C 5.550781 1.835938 5.171875 2.078125 4.703125 2.234375 C 4.234375 2.398438 3.726562 2.484375 3.1875 2.484375 C 2.226562 2.484375 1.507812 2.335938 1.03125 2.046875 C 0.5625 1.753906 0.328125 1.347656 0.328125 0.828125 C 0.328125 0.578125 0.394531 0.347656 0.53125 0.140625 C 0.675781 -0.0546875 0.878906 -0.21875 1.140625 -0.34375 C 1.003906 -0.414062 0.894531 -0.519531 0.8125 -0.65625 C 0.738281 -0.800781 0.703125 -0.960938 0.703125 -1.140625 C 0.703125 -1.359375 0.769531 -1.566406 0.90625 -1.765625 C 1.050781 -1.972656 1.28125 -2.144531 1.59375 -2.28125 C 1.25 -2.425781 0.976562 -2.625 0.78125 -2.875 C 0.59375 -3.132812 0.5 -3.4375 0.5 -3.78125 C 0.5 -4.375 0.71875 -4.816406 1.15625 -5.109375 C 1.59375 -5.410156 2.21875 -5.5625 3.03125 -5.5625 C 3.84375 -5.5625 4.46875 -5.429688 4.90625 -5.171875 C 5.007812 -5.253906 5.140625 -5.328125 5.296875 -5.390625 C 5.460938 -5.460938 5.640625 -5.5 5.828125 -5.5 L 6.453125 -5.5 Z M 3.046875 -2.96875 C 3.328125 -2.96875 3.535156 -3.03125 3.671875 -3.15625 C 3.816406 -3.28125 3.890625 -3.492188 3.890625 -3.796875 C 3.890625 -4.359375 3.617188 -4.640625 3.078125 -4.640625 C 2.796875 -4.640625 2.582031 -4.578125 2.4375 -4.453125 C 2.289062 -4.328125 2.21875 -4.109375 2.21875 -3.796875 C 2.21875 -3.535156 2.285156 -3.332031 2.421875 -3.1875 C 2.566406 -3.039062 2.773438 -2.96875 3.046875 -2.96875 Z M 2.296875 -0.046875 C 2.171875 0.109375 2.109375 0.289062 2.109375 0.5 C 2.109375 0.789062 2.191406 1.035156 2.359375 1.234375 C 2.523438 1.429688 2.820312 1.53125 3.25 1.53125 C 3.632812 1.53125 3.9375 1.460938 4.15625 1.328125 C 4.382812 1.191406 4.5 0.984375 4.5 0.703125 C 4.5 0.546875 4.472656 0.410156 4.421875 0.296875 C 4.367188 0.191406 4.265625 0.109375 4.109375 0.046875 C 3.960938 -0.015625 3.742188 -0.046875 3.453125 -0.046875 Z M 2.296875 -0.046875 "/></g></g></g><g fill="#f7b43d" fill-opacity="1"><g transform="translate(106.763369, 32.960874)"><g><path d="M 5.484375 -3.34375 C 5.484375 -2.9375 5.460938 -2.597656 5.421875 -2.328125 L 2.1875 -2.328125 C 2.226562 -1.929688 2.363281 -1.640625 2.59375 -1.453125 C 2.832031 -1.273438 3.15625 -1.1875 3.5625 -1.1875 C 3.820312 -1.1875 4.097656 -1.210938 4.390625 -1.265625 C 4.691406 -1.328125 4.910156 -1.394531 5.046875 -1.46875 L 5.3125 -0.515625 C 5.113281 -0.359375 4.816406 -0.21875 4.421875 -0.09375 C 4.035156 0.0195312 3.613281 0.078125 3.15625 0.078125 C 2.5625 0.078125 2.0625 -0.0351562 1.65625 -0.265625 C 1.25 -0.492188 0.9375 -0.816406 0.71875 -1.234375 C 0.507812 -1.660156 0.40625 -2.171875 0.40625 -2.765625 C 0.40625 -3.304688 0.515625 -3.785156 0.734375 -4.203125 C 0.953125 -4.628906 1.269531 -4.960938 1.6875 -5.203125 C 2.101562 -5.453125 2.597656 -5.578125 3.171875 -5.578125 C 3.847656 -5.578125 4.398438 -5.40625 4.828125 -5.0625 C 5.253906 -4.726562 5.472656 -4.15625 5.484375 -3.34375 Z M 3.828125 -3.21875 C 3.828125 -3.269531 3.828125 -3.335938 3.828125 -3.421875 C 3.828125 -3.765625 3.769531 -4.015625 3.65625 -4.171875 C 3.550781 -4.335938 3.375 -4.421875 3.125 -4.421875 C 2.863281 -4.421875 2.65625 -4.328125 2.5 -4.140625 C 2.351562 -3.960938 2.253906 -3.65625 2.203125 -3.21875 Z M 3.828125 -3.21875 "/></g></g></g><g fill="#f7b43d" fill-opacity="1"><g transform="translate(112.645156, 32.960874)"><g><path d="M 0.90625 -4.328125 L 0.28125 -4.328125 L 0.28125 -5.265625 C 0.5625 -5.347656 0.769531 -5.425781 0.90625 -5.5 C 1.050781 -5.570312 1.15625 -5.679688 1.21875 -5.828125 C 1.257812 -5.910156 1.34375 -6.101562 1.46875 -6.40625 L 1.609375 -6.75 L 2.703125 -6.75 L 2.703125 -5.5 L 4.125 -5.5 L 4.125 -4.328125 L 2.703125 -4.328125 L 2.703125 -2.375 C 2.703125 -2.03125 2.71875 -1.78125 2.75 -1.625 C 2.789062 -1.46875 2.851562 -1.367188 2.9375 -1.328125 C 3.019531 -1.285156 3.148438 -1.265625 3.328125 -1.265625 C 3.453125 -1.265625 3.597656 -1.285156 3.765625 -1.328125 C 3.929688 -1.367188 4.054688 -1.414062 4.140625 -1.46875 L 4.34375 -0.484375 C 4.25 -0.398438 4.109375 -0.3125 3.921875 -0.21875 C 3.734375 -0.132812 3.515625 -0.0625 3.265625 0 C 3.015625 0.0507812 2.765625 0.078125 2.515625 0.078125 C 2.128906 0.078125 1.816406 0.015625 1.578125 -0.109375 C 1.335938 -0.242188 1.164062 -0.441406 1.0625 -0.703125 C 0.957031 -0.960938 0.90625 -1.300781 0.90625 -1.71875 Z M 0.90625 -4.328125 "/></g></g></g><g fill="#f7b43d" fill-opacity="1"><g transform="translate(117.105871, 32.960874)"><g><path d="M 4.25 -5.578125 C 4.820312 -5.578125 5.242188 -5.398438 5.515625 -5.046875 C 5.796875 -4.703125 5.9375 -4.171875 5.9375 -3.453125 L 5.9375 0 L 4.140625 0 L 4.140625 -3.140625 C 4.140625 -3.410156 4.113281 -3.617188 4.0625 -3.765625 C 4.019531 -3.921875 3.945312 -4.03125 3.84375 -4.09375 C 3.75 -4.15625 3.625 -4.1875 3.46875 -4.1875 C 3.332031 -4.1875 3.175781 -4.15625 3 -4.09375 C 2.832031 -4.039062 2.6875 -3.953125 2.5625 -3.828125 L 2.5625 0 L 0.765625 0 L 0.765625 -8.015625 L 2.5625 -8.015625 L 2.5625 -5.953125 L 2.46875 -4.921875 C 2.6875 -5.097656 2.953125 -5.25 3.265625 -5.375 C 3.578125 -5.507812 3.90625 -5.578125 4.25 -5.578125 Z M 4.25 -5.578125 "/></g></g></g><g fill="#f7b43d" fill-opacity="1"><g transform="translate(123.75359, 32.960874)"><g><path d="M 5.484375 -3.34375 C 5.484375 -2.9375 5.460938 -2.597656 5.421875 -2.328125 L 2.1875 -2.328125 C 2.226562 -1.929688 2.363281 -1.640625 2.59375 -1.453125 C 2.832031 -1.273438 3.15625 -1.1875 3.5625 -1.1875 C 3.820312 -1.1875 4.097656 -1.210938 4.390625 -1.265625 C 4.691406 -1.328125 4.910156 -1.394531 5.046875 -1.46875 L 5.3125 -0.515625 C 5.113281 -0.359375 4.816406 -0.21875 4.421875 -0.09375 C 4.035156 0.0195312 3.613281 0.078125 3.15625 0.078125 C 2.5625 0.078125 2.0625 -0.0351562 1.65625 -0.265625 C 1.25 -0.492188 0.9375 -0.816406 0.71875 -1.234375 C 0.507812 -1.660156 0.40625 -2.171875 0.40625 -2.765625 C 0.40625 -3.304688 0.515625 -3.785156 0.734375 -4.203125 C 0.953125 -4.628906 1.269531 -4.960938 1.6875 -5.203125 C 2.101562 -5.453125 2.597656 -5.578125 3.171875 -5.578125 C 3.847656 -5.578125 4.398438 -5.40625 4.828125 -5.0625 C 5.253906 -4.726562 5.472656 -4.15625 5.484375 -3.34375 Z M 3.828125 -3.21875 C 3.828125 -3.269531 3.828125 -3.335938 3.828125 -3.421875 C 3.828125 -3.765625 3.769531 -4.015625 3.65625 -4.171875 C 3.550781 -4.335938 3.375 -4.421875 3.125 -4.421875 C 2.863281 -4.421875 2.65625 -4.328125 2.5 -4.140625 C 2.351562 -3.960938 2.253906 -3.65625 2.203125 -3.21875 Z M 3.828125 -3.21875 "/></g></g></g><g fill="#f7b43d" fill-opacity="1"><g transform="translate(129.635376, 32.960874)"><g><path d="M 3.96875 -5.578125 C 4.164062 -5.578125 4.296875 -5.554688 4.359375 -5.515625 L 4.359375 -3.75 C 4.210938 -3.84375 4.019531 -3.890625 3.78125 -3.890625 C 3.257812 -3.890625 2.84375 -3.710938 2.53125 -3.359375 L 2.53125 0 L 0.734375 0 L 0.734375 -5.5 L 2.3125 -5.5 L 2.375 -4.609375 C 2.457031 -4.796875 2.570312 -4.960938 2.71875 -5.109375 C 2.875 -5.265625 3.0625 -5.378906 3.28125 -5.453125 C 3.5 -5.535156 3.726562 -5.578125 3.96875 -5.578125 Z M 3.96875 -5.578125 "/></g></g></g></svg>